<svg xmlns="http://www.w3.org/2000/svg" xmlns:xlink="http://www.w3.org/1999/xlink" viewBox="989 -1 462 162"><defs><style>.cls-6{fill: #ceff05;}.cls-36{fill: #cfff04;}.cls-40{fill: none;}.cls-48{fill: #331a18;}.cls-49{fill: #1c1c1c;}.cls-56{fill: #1b1c1c;}.cls-65{fill: #ff2e9b;}.cls-83{fill: #5d00ff;}.cls-94{fill: #ff2e9a;}</style></defs>
<g>
    <rect class="cls-56" x="998.57" width="450.93" height="157.63"/>
    <g>
      <path class="cls-36" d="M991.58,111.8l.02-11.04,9.93-1.43c.37-.05.91.07,1.1.26-1.11,2.67-1.05,5.01,1.03,7.07,1.82,1.8,4.38,2.5,6.82,1.57,2-.76,3.32-2.48,3.56-4.6l31.59,11.43c.59.21,1.04.25,1.65.16-1.16,1.6-1.69,3.5-1.13,5.51.45,1.6,1.66,3.1,3.44,3.89,2.18.96,4.8.86,6.85-.43l.9-1c1.94-2.16,2.51-5.78.6-8.04l1.26-2.13,71.49-11.57c-1.23,1.85-1.87,3.79-1.22,5.81.8,2.48,3.08,3.7,5.57,3.8s4.35-.94,5.58-3.08,1.43-4.77-.19-6.74l.45-.93c2.76.18,7.55.81,9.58,2.83.72.72.61,1.68-.1,2.32-.9.8-2.03,1.13-3.18,1.57,3.75-.06,7.3.15,10.81,1.26,1.52.48,4.53,1.69,4.34,3.52-.18,1.74-2.87,2.68-4.42,3.08-4.12,1.05-8.27,1.11-12.49.62-5.92-.69-13.86-.09-19.7,1.63l-.06.22c2.22.55,6.37,2.14,6.34,4.85-.04,3.99-7.77,4.52-9.86,4.82l-3.82.55c-1.35.19-6.46.47-6.55-1.77-3.53.52-7.02.79-10.57.4-1.57-.17-5.11-.7-5.6-2.42-.37-1.31,1.6-2.25,2.44-2.91.15-.3-.22-.92-.48-1.09-1.07-.71-1.73.5-3.6-.26-.24-.1-.61-.4-.61-.62,0-.27.07-.63.14-1.07-4.64-.18-10.02-.18-14.4,1.48.1.88.75,1.03,1.38,1.22,1.55.47,5.03,1.62,4.99,3.47-.04,1.88-3.63,2.54-5.17,2.69-3.62.35-7.2-.38-9.8-.31-6.33.18-12.62.8-18.88,1.96-2.72.51-5.2,1.01-7.96.75-3.2-.31-6.26-1.09-8.86-3.04-1-.75-1-2.09-.11-2.95.2-.2.39-.44.57-.69-4.54-1.45-9.62-.97-14.13-.26-3.89.61-10.31.74-13.72-1.37-.78-.48-1.47-1.27-1.41-2.2.17-2.65,4.51-4.45,6.67-5.17.47-.16.87-.44.94-.97l-2.43-.15-3-.15-4.27-.17-5.22-.16-7.11-.04Z"/>
      <path class="cls-36" d="M1155.13,119.77c-.16,2.67-7.06,3.53-8.93,2.38l-.62-.82c-.92-.08-1.93-.2-2.59-.81-.47-.43,0-1.07.46-1.32,2.16-1.2,5.57-1.45,8.06-1.3,1.02.06,2,.13,2.89.68.38.24.77.82.74,1.19Z"/>
      <path class="cls-36" d="M1001.89,115.84c.25,1.5-4.32,2.69-7.79.88-.35-.18-.65-.73-.64-1.04.11-2.26,8.03-2.26,8.43.16Z"/>
      <path class="cls-83" d="M1011.86,106.28c-.78.58-2.21.44-2.92-.14-1.39-1.14-1.53-2.95-.85-4.62l5.32,1.91c-.3,1.06-.6,2.14-1.56,2.85Z"/>
      <path class="cls-83" d="M1005.46,100.52c-.96,2.31-.62,5.41,1.75,7-2.3-.37-4.45-1.94-4.69-4.62-.1-1.08.28-2.14.7-3.16l2.24.79Z"/>
      <path class="cls-83" d="M1007.62,105.62c.54,1.02,1.45,1.52,2.46,1.67-1.35.32-2.61-.18-3.46-1.22-1.22-1.5-1.46-3.52-.59-5.33l1.52.56c-.61,1.46-.66,2.95.08,4.32Z"/>
      <path class="cls-83" d="M1057.63,115.83c1.3,1.94,1.13,4.02,0,5.94-1.13,1.93-3.44,2.98-5.58,2.07s-3.16-3.67-2.66-5.56c.36-1.36.84-2.64,2.04-3.42l.87,2.49c-1.11,1.18-1.28,2.74-.35,4.1.57.83,1.62,1.11,2.64.86.86-.21,1.54-.93,1.91-1.87.86-2.21-1.24-1.07,1.12-4.61Z"/>
      <path class="cls-83" d="M1055.17,119.02c-.51.55-1.2.76-1.72.27l-1.45-5.06,6.38-1.03-3.21,5.83ZM1054.32,118.55c.25.06.54-.56.5-.82-.03-.22-.42-.63-.65-.56-.59.18-.52,1.21.14,1.38Z"/>
      <path class="cls-83" d="M1051.85,124.54c-1.37-.1-2.73-.65-3.72-1.65-2.27-2.28-2.04-5.84.24-8.05.81-.18,1.64-.3,2.5-.37-1.66,1.65-2.41,3.79-1.98,6.05.34,1.76,1.33,3.02,2.96,4.02Z"/>
      <path class="cls-83" d="M1055.98,118.92c.21.81-.19,1.89-.91,2.43-.91.68-2.02.54-2.71-.36-.61-.79-.62-2.08.1-2.86.22.96.53,2.04,1.56,2.16.84.1,1.44-.57,1.96-1.37Z"/>
      <path class="cls-49" d="M1054.32,118.55c-.67-.17-.73-1.2-.14-1.38.23-.07.61.34.65.56.04.25-.26.88-.5.82Z"/>
      <path class="cls-83" d="M1140.11,102.06c.57.58.78,1.43.81,2.31.1,2.54-1.34,4.86-3.71,5.77-1.99.76-4.07-.38-4.55-2.44-.48-2.07.1-4.19,1.68-5.73l.67,2.03c-.58.61-1.02,1.44-.86,2.27.13.71.63,1.56,1.42,1.8,1.02.3,2-.02,2.65-.76.59-.69.97-1.67.66-2.6l1.23-2.67Z"/>
      <path class="cls-83" d="M1133.28,110.1c-1.3-.35-2.46-1.37-3.04-2.62-1.02-2.19-.02-4.46,1.45-6.18l1.91-.33c.13-.02.38.01.47.09.11.1-.07.41-.2.54-2.2,2.11-2.86,5.92-.58,8.49Z"/>
      <path class="cls-83" d="M1138.5,100.29l-.75,1.72c-.17.38-.32.89-.3,1.26-.26.03-.58.11-.82.22-.2.09-.36.59-.26.86.09.24.7.45.93.33.21-.11.45-.37.62-.61l.76-.19c-.23.52-.51.96-.83,1.41-.28.4-1.14.44-1.61.25l-1.05-3.19-.49-1.55,3.81-.52Z"/>
      <path class="cls-94" d="M1138.67,103.88l-.76.19c-.09-.25-.31-.57-.47-.8-.01-.37.14-.88.3-1.26l.75-1.72,1.9-.36-1.73,3.96Z"/>
      <path class="cls-83" d="M1136.53,106.34c.59.21,1.24-.23,1.68-.54.12.74-.54,1.44-1.1,1.65-.86.32-1.59,0-2.03-.64-.48-.69-.38-1.43.08-2.11.26.68.59,1.36,1.37,1.64Z"/>
      <path class="cls-49" d="M1137.44,103.27c.16.23.38.56.47.8-.17.24-.41.5-.62.61-.23.12-.84-.1-.93-.33-.1-.27.06-.77.26-.86.24-.11.56-.19.82-.22Z"/>
      <path class="cls-83" d="M1140.88,56.46l.67.52v13.85c-1.07.86-1.72,1.84-2.21,3.11l-28.63,3.87-59.85,8.05-.1-15.53-.08-9.23c.88-.01,1.68-.06,2.53-.13l4.73-.39c.09.5.18,1.39.14,2.02l-5.56.51c-.27.02-.66.18-.83.31-.14.12-.27.64-.13.76.24.22.87.15,1.24.12l5.48-.46c.43,1.21.61,4.09,1.97,4.07,1.44-.02,1.61-3.01,1.76-4.43l38.19-3.43,40.68-3.58Z"/>
      <path class="cls-83" d="M1141.04,78.13c.17.08.5.36.5.55v16.67s-29.87,4.61-29.87,4.61l-60.66,9.27-.06-15.1-.06-4.3,33.78-4.43,56.38-7.27Z"/>
      <path class="cls-83" d="M1141.38,36.6v11.85c0,.16.14.38.14.31v1.11s-.6.33-.6.33c-.55.83-.97,1.69-1.3,2.62l-77.49,6.69c-.07-2.05-.26-4.05-.5-6.18-.42-3.72.18-7.41,1.51-10.88.23-.61.62-1.12.97-1.56l1.55-.09c.69.9,1.11,3.96,1.02,5.27l-.15,2.24c-.08,1.09.71,2.34,1.78,2.68.76.24,1.5-.45,1.86-1.08,1.62-2.8.89-6.54.62-9.39.65,0,1.31-.03,2.03-.07l1.74-.11,2.53-.16,2.33-.14c.04.54.3,1.31.66,1.74.44.52,1.26.1,1.45-.43.17-.47.41-1.03.46-1.46l1.14-.07,2.02-.12,2.53-.15,2.69-.16,2.84-.16,2.69-.15,2.84-.16,2.85-.16,2.68-.15,2.85-.16,3-.17,2.85-.15,3-.16,3-.16,2.84-.15,3.16-.17,2.37-.14,3.63-.18,2.85-.15,2.69-.15,3.32-.18,1.57-.11Z"/>
      <path class="cls-83" d="M1040.41,107.87c.26-.26.74-.71.75-1.13l.26-10.84c.05-2.07.54-5.7-.89-7.14l-7.11-2.39c-.59-.2-1.46.39-1.95.73l-.5,15.21c-.02.74.02,1.41.09,2.04-.54-.22-1.1-.33-1.56-.56v-24.65s10.46,2.96,10.46,2.96c.25.07.6-.36.62-.59l-.09-4.36-.13-4.18c-.45-.8-1.42-1.49-2.1-2.12-1.8-1.66-1.32-1.2-1.21-2.67l.16-2.18.16-1.9.15-1.9.16-2.06c.06-.75.13-1.53.3-2.17,1.13-.07,1.91-.18,2.9-.55l.02-7.56c0-.48-.32-1.15-.82-1.24l-12.32-2.2c.19-.3.32-.7.32-1.12l.11-9.18c0-.33-.21-.75-.5-.74-.2.01-.49.26-.68.49l-.11,9.8.54.71c-3.29-.37-26.1-4.71-26.69-4.3l-.79.56.02-23.26,8.63,4.3,10.58,5.36,7.74,3.96,5.43,2.79,3.55,1.84,4.68,2.42,1.69.88.08,10.78.17,16.63.16,15.27.15,13.43.07,11.73c-.97-.25-1.73-.63-2.52-.91ZM1010.41,42.2l-.03-13.18c0-.3-.3-.62-.51-.59-.2.03-.62.36-.62.59l.03,13.39c0,.24.52.66.73.61.19-.05.4-.45.4-.81Z"/>
      <path class="cls-83" d="M1143.09,36.5l.29,20,.19,12.33.11,10.45.15,16.94-8.01,1.35-36.66,5.95c-.52.25-.73.65-.9,1.11l-49.36,7.01-.18-10.43-.16-10.43-.15-11.54c0-.23-.16-.8-.35-.76l-.69.14-.09-6.88-.16-13.1-.12-13.99-.13-2.63c1.02-.14,1.93-.22,3.01-.23l.07,9.57.16,19.17.11,22.44c.08.96.13,1.77.13,2.73l.02,14.25,69.18-10.64,22.63-3.43-.08-46.05-.08-13.17c.42-.09.78-.16,1.08-.18Z"/>
      <path class="cls-83" d="M1032.66,107.06c-.82-.5-1.75-.7-2.74-1.1l-29.67-11.84-.2-7.92-.14-6.8-.14-8.37c0-.4-.05-.8-.1-1.13.21.2.86.46.86.8l.11,4.06.18,4.24.14,6.02.17,4.55.1,3.69c.02.66.55.72,1.04.91l29.93,11.27,10.78,4.11c.23.09.58-.35.58-.6l-.09-11.28-.16-10.6-.16-17.21-.16-17.37-.08-11.2c1.01.4,1.76,1.07,2.83.66l.09,11.28.16,13.11.15,11.73.15,12.92.16,12.47.09,8.53-8.01-2.78-5.21-1.75-.69-.42Z"/>
      <path class="cls-83" d="M1012.16,97.24c-.05-.39-.17-.89-.17-1.24l-.07-7.36-.24-6.64-.05-7.85,17.23,4.8v24.6s-16.71-6.31-16.71-6.31ZM1026.61,98.37c.18.74.36,3.73,1.56,3.63.23-.02.54-.5.54-.78l-.08-7.51-.09-11.93c0-.4-.31-.74-.61-.85-.34-.12-.91.07-.99.45l-.43,2.17-10.78-3.2c-.82-.24-1.74.55-1.99,1.28l10.23,17.18c.58.39,1.18.69,1.87.49.34-.1.62-.61.77-.91Z"/>
      <polygon class="cls-83" points="1140.23 77.01 1127.76 78.63 1050.87 88.53 1050.87 86.5 1080.87 82.42 1123.57 76.64 1139.4 74.53 1140.23 77.01"/>
      <path class="cls-94" d="M1040.41,107.87c-3.24-1.12-6.31-2.28-9.34-3.53-.07-.63-.11-1.3-.09-2.04l.5-15.21c.5-.34,1.36-.93,1.95-.73l7.11,2.39c1.42,1.44.94,5.07.89,7.14l-.26,10.84c-.01.42-.49.87-.75,1.13Z"/>
      <path class="cls-83" d="M1011.47,96.96l-9.45-3.57-.09-3.67-.15-6.93-.17-5.51c-.06-1.97-.07-3.91-.06-5.93l9.43,2.62.13,2.83.15,9.92.16,7.29c.02.95.08,1.77.06,2.94ZM1010.38,94.33l.05-15.51c0-.68.13-1.46-.08-2.07-.13-.38-1.51-.29-1.53.13l.17,16.9c0,.7.22,1.37.96,1.56.2-.12.43-.6.43-1.01Z"/>
      <path class="cls-83" d="M1140.08,55.25l-77.89,7c-.12-.71-.09-1.45,0-2.13l70-6.09,2.08-.18,1.89-.16,1.9-.16,1.54-.15c.13.57.26,1.34.48,1.86Z"/>
      <path class="cls-94" d="M1098.27,104.63c.16-.47.38-.86.9-1.11l36.66-5.95,8.01-1.35-.15-16.94-.11-10.45-.19-12.33-.29-20,1.56-.07.11,9.39.12,9.1.15,12.48.17,14.7.13,15.1-30.09,4.89-16.99,2.54Z"/>
      <path class="cls-83" d="M1057.32,41.33c.37,1.41.02,2.82-.48,4.26-.52,1.53.23,3.04.5,4.53.28,1.58.52,3.18.53,4.81l.05,5.02-2.2.14-1.75.15-2.03.18c-.48.04-.86.09-1.26.33l-.08-13.02-.1-6.07,2.5-.07,2.57-.16,1.74-.11Z"/>
      <polygon class="cls-36" points="1140.23 77.01 1141.04 78.13 1084.66 85.4 1050.88 89.83 1050.87 88.53 1127.76 78.63 1140.23 77.01"/>
      <path class="cls-36" d="M999.68,69.91c.04.33.09.73.1,1.13l.14,8.37.14,6.8.2,7.92,29.67,11.84c1,.4,1.93.6,2.74,1.1-.23-.01-.54-.03-.84-.14l-32.8-11.41-.16-6.77-.13-7.12-.17-12.59c.41.27.82.61,1.11.88Z"/>
      <polygon class="cls-83" points="1149.42 48.98 1149.67 53.67 1150.04 64.25 1146.13 65 1146.05 55.35 1145.95 49.25 1148.49 49.04 1149.42 48.98"/>
      <path class="cls-83" d="M1053.67,35.78c.08.33.15.66.18,1.16.04.8.98,1.56,1.73,1.61,1.04.08.98.72,1.29,1.32l-2.08.09-2.54.15-2.53.15-2.84.17-1.69.08-.15-2.21c-.04-.65-.05-1.32-.05-1.99l1.57-.1,2.23-.14,2.69-.17,2.19-.14Z"/>
      <path class="cls-36" d="M1048.91,111.64c-.42.06-.76.1-1.15.14l-.12-9.31-.16-12.32-.1-11.52.69-.14c.2-.04.35.53.35.76l.15,11.54.16,10.43.18,10.43Z"/>
      <polygon class="cls-94" points="1150.04 64.25 1149.67 53.67 1149.42 48.98 1151.3 48.82 1151.47 57.29 1151.57 64.03 1150.04 64.25"/>
      <path class="cls-6" d="M1027.76,46.41l-.31-.03-.54-.71.11-9.8c.19-.23.48-.48.68-.49.29-.02.5.41.5.74l-.11,9.18c0,.42-.14.82-.32,1.12Z"/>
      <polygon class="cls-94" points="1151.14 48.23 1145.98 48.67 1145.91 44.87 1151.14 48.23"/>
      <path class="cls-94" d="M1146.18,70.51l-.06-4.94,5.29-.89-5.23,5.83ZM1146.88,69.36l2.79-3.72-2.94.35.15,3.37Z"/>
      <path class="cls-94" d="M1141.52,48.76c0,.07-.13-.16-.13-.31v-11.85s.16.12.16.32l-.03,11.84Z"/>
      <path class="cls-83" d="M1028.71,56.85c.69-.06,1.35.2,2.02.35l.02,14.97c-.08-.05-.37-.22-.5-.26l-19.89-5.58-14.35-4.12.36-9.93,33.48,7.03c.47,0,.93-1.24.71-1.67l-1.85-.79Z"/>
      <path class="cls-83" d="M1016.98,45.93c.3.03.83,0,1.23.08l19.19,3.38-5.26,5.15-21.43-4.56c-.82-.17-1.44.76-1.91,1.13l-11.22-2.37c1.68-1.1,3.28-2.3,4.61-3.95.93.08,1.88.08,2.76.25,2.81.57,5.54,1.12,8.43,1.18.88.02,1.66.06,2.54.18.47.06.84-.1,1.06-.47Z"/>
      <path class="cls-36" d="M996.45,49.71l.03.85c1.13.02,2.28-.32,3.31-.1l28.2,6.09c.22.05.56.22.72.29l1.85.79c.22.43-.24,1.67-.71,1.67l-33.48-7.03-.36,9.93,14.35,4.12,19.89,5.58c.13.04.42.21.5.26l.19.63-36.69-9.16.07-7.6.19-6.76,1.94.43Z"/>
      <polygon class="cls-83" points="1035.48 77.92 1037.47 80.18 1002.49 70.41 995.79 65.2 1024.01 72.25 1031.84 74.24 1035.48 77.92"/>
      <path class="cls-94" d="M1008.8,51.11c.47-.37,1.09-1.3,1.91-1.13l21.43,4.56,5.26-5.15c.56.1,1.13.15,1.76.31l-6.25,6.54c-.18.07-.7.11-.9.07l-23.22-5.2Z"/>
      <path class="cls-36" d="M1002.16,43.21c4.94.9,9.96,1.56,14.82,2.72-.22.37-.59.54-1.06.47-.89-.12-1.67-.16-2.54-.18-2.89-.06-5.62-.61-8.43-1.18-.88-.18-1.83-.18-2.76-.25-1.32,1.65-2.92,2.85-4.61,3.95-.74-.16-1.5-.27-2.25-.51l2.84-2.31c-.63.51,4.48-3.34,4-2.71Z"/>
      <path class="cls-94" d="M1030.94,72.79l-.19-.63-.02-14.97,1.4.31.71,15.77c-.75-.07-1.31-.33-1.9-.48Z"/>
      <path class="cls-83" d="M1033.25,57.45l5.13-5.19c.44-.54.85-.99,1.38-1.49v5.87s-6.5.81-6.5.81Z"/>
      <path class="cls-83" d="M999.79,50.46c-1.03-.22-2.18.11-3.31.1l-.03-.85c1.11.25,2.26.41,3.34.76Z"/>
      <path class="cls-83" d="M1002.16,43.21c.49-.63-4.63,3.22-4,2.71.31-.46.88-.82,1.34-1.21l1.63-1.4c.34-.3.7-.15,1.03-.1Z"/>
      <path class="cls-49" d="M1079.29,38.52l.11,1.53-2.33.14-2.53.16-1.74.11c-.72.04-1.38.08-2.03.07-.05-.54.18-1.05.29-1.55l2.36-.13,2.69-.15,1.87-.1,1.31-.08Z"/>
      <path class="cls-6" d="M1084.94,31.26c-.05.06.03.6.34.58l16.44-1.03.79.76-17.35,1.07c-.34.48-.7.96-1.12,1.23-1.48.96-2.18,2.75-1.89,4.49l-.18,1.53c-.05.43-.29.99-.46,1.46-.19.53-1.01.94-1.45.43-.36-.42-.62-1.19-.66-1.74l-.11-1.53c-.1-1.31-.61-2.61-1.76-3.52-1.31,1.45-3.18,2.53-4.93,1.11-.86.72-1.33,1.84-1.55,2.87-.11.5-.34,1.01-.29,1.55.27,2.85,1,6.59-.62,9.39-.37.63-1.1,1.32-1.86,1.08-1.07-.34-1.85-1.59-1.78-2.68l.15-2.24c.09-1.31-.33-4.37-1.02-5.27-.19-.25-.56-.6-.84-.57-.29.03-.54.45-.71.66-.35.44-.74.95-.97,1.56-1.32,3.46-1.93,7.16-1.51,10.88.24,2.13.43,4.13.5,6.18,0,.15.05.45.07.61-.09.67-.12,1.42,0,2.13l77.89-7c.17.39.58.84.8,1.21l-40.68,3.58-38.19,3.43c-.16,1.42-.32,4.41-1.76,4.43-1.37.02-1.55-2.85-1.97-4.07l-5.48.46c-.36.03-1,.1-1.24-.12-.14-.13-.01-.65.13-.76.17-.14.56-.29.83-.31l5.56-.51c.04-.62-.05-1.52-.14-2.02v-.62s-.05-5.02-.05-5.02c-.02-1.62-.25-3.23-.53-4.81-.27-1.5-1.03-3-.5-4.53.49-1.44.84-2.85.48-4.26-.14-.56-.2-.97-.45-1.46-.31-.6-.26-1.24-1.29-1.32-.75-.05-1.69-.81-1.73-1.61-.02-.5-.1-.83-.18-1.16-.22-.92-1.09-1.32-2.03-1.22l-1.98-.6-.84-.59c-.08-4.13,8.17-2.66,10.72-2,.55.14,1.13.17,1.66-.02,2.08-.76,4.17-1.06,6.35-1.3,1.82-.2,3.53-.16,5.23.62,2.92-1.15,5.94-1.53,9.02-1.19,1.33.15,2.31.88,3.14,1.78Z"/>
      <path class="cls-49" d="M1065.64,40.8l-1.55.09c.16-.21.42-.63.71-.66.28-.03.64.31.84.57Z"/>
      <path class="cls-6" d="M1010.41,42.2c0,.36-.22.76-.4.81-.21.05-.73-.36-.73-.61l-.03-13.39c0-.23.43-.56.62-.59.21-.03.51.28.51.59l.03,13.18Z"/>
      <path class="cls-83" d="M1079.29,38.52l-1.31.08-1.87.1-2.69.15-2.36.13c.22-1.02.69-2.15,1.55-2.87,1.75,1.42,3.62.34,4.93-1.11,1.15.91,1.66,2.21,1.76,3.52Z"/>
      <path class="cls-94" d="M1026.51,83.54c-.51,4.91-.53,9.84.1,14.82-.15.31-.43.81-.77.91-.69.2-1.29-.1-1.87-.49l-10.23-17.18c.26-.73,1.17-1.52,1.99-1.28l10.78,3.2Z"/>
      <path class="cls-36" d="M1026.61,98.37c-.63-4.99-.61-9.91-.1-14.82l.43-2.17c.08-.38.65-.57.99-.45.3.11.61.46.61.85l.09,11.93.08,7.51c0,.29-.31.76-.54.78-1.2.1-1.38-2.89-1.56-3.63Z"/>
      <path class="cls-36" d="M1010.38,94.33c0,.41-.23.89-.43,1.01-.74-.19-.95-.86-.96-1.56l-.17-16.9c.02-.42,1.4-.51,1.53-.13.21.62.08,1.39.08,2.07l-.05,15.51Z"/>
      <path class="cls-83" d="M1147.84,34.35l-1.71.14-2.68.17-2.22.14-2.68.17-2.22.14-2.68.17-2.53.17-1.77.13-2.35.1-2.38.15-2.68.16-2.53.15-2.69.16-2.53.15-2.53.16-2.69.16-2.85.17-2.53.15-2.68.16-2.69.16-2.69.16-2.69.16-3,.17-2.53.15-2.85.17-2.34.14c-.29-1.75.41-3.54,1.89-4.49.6.02,1.21-.02,1.88-.06l2.53-.16,1.74-.1,2.38-.15,2.53-.16,2.68-.16,2.84-.17,2.38-.15,2.53-.16,2.69-.16,2.84-.16c.98-.06,1.92-.1,2.84-.11l8.85-.12,7.43-.15,7.27-.14,10.04-.19.37,2.79Z"/>
      <polygon class="cls-83" points="997.75 16.73 997.94 14.84 1016.69 23.47 1019.41 24.73 1021.56 25.74 1024.27 27 1043.74 36.09 1043.7 40.2 1032.07 34.36 1025.58 31.04 1019.74 28.04 1013.89 25.03 1006.78 21.4 1000.18 18.05 997.75 16.73"/>
      <path class="cls-83" d="M1000.87,12.18c-.95-.37-1.84-.73-2.69-1.17l43.46-3.97,2.39-.21,22.13-1.94-1.5,1.97-61.65,5.1-2.13.22Z"/>
      <path class="cls-83" d="M1048.81,33.38l.84.59,1.98.6c-.62.1-1.33.15-2.06.19l-2.41.13c-.86.04-2.1.42-2.91.04l-2.78-1.28-1.45-.65-24.42-11.25-17.58-8.22.07-1.18,1.82.73,6.41,2.96,2.58,1.2,2.48,1.14,3.01,1.4,2.27,1.06,2.79,1.31,2.27,1.06,2.69,1.26,3,1.42,2.69,1.26,2.91,1.36,3.12,1.48,2.89,1.37,4.39,2.08c1.01.48,1.3.14,3.01.06l2.4-.12Z"/>
      <path class="cls-6" d="M999.99,19.37l-.02,23.26-1.59,1.24.15-16.91.06-8.33c.6.15.97.52,1.41.73Z"/>
      <path class="cls-94" d="M1147.84,34.35l-.37-2.79-10.04.19-7.27.14-7.43.15-8.85.12c.09-.08.39-.13.61-.14l2.89-.14,32.04-1.83.14,4.16c-.61.08-1.18.07-1.72.12Z"/>
      <polygon class="cls-36" points="997.94 14.84 997.75 16.73 995.99 15.91 996.07 13.94 997.94 14.84"/>
      <path class="cls-36" d="M998.1,12.35l-.07,1.18-1.89-.81c.07-.41.19-.81.34-1.17l1.62.81Z"/>
      <path class="cls-83" d="M1092.24,5.33l8.23,5.36c-.18.14-.37.49-.33.68s.28.65.45.76l9.34,6.29c.2.13.84.16.94-.05l.33-.7,6.8,4.38c-1.69.45-5.17.25-6.94.64l-15.58-9.56-11.94-7.51,8.71-.31Z"/>
      <path class="cls-83" d="M1081.49,5.79l15,9.33,11.86,7.42c-.02.11-.03.24-.11.25l-.35.02-6.44.4c-.46-.27-.92-.55-1.35-.85-.07-.29-.23-.61-.56-.82l-24.7-15.39,6.66-.38Z"/>
      <polygon class="cls-83" points="1100.57 27.7 1089.08 20.8 1081.18 16.05 1066.42 7.05 1068.18 4.62 1078.81 11.01 1100.98 24.51 1100.57 27.7"/>
      <path class="cls-83" d="M1102.2,5l8.51,5.36c-.26.19-.06.81.29,1.03l12.68,7.96c.28.18.99,0,.96-.26l3.91,2.33s-.32.15-.45.16l-4.4.26c-1.15.07-2.21.14-3.27.28l-9.43-5.99-6.12-4.01-10.25-6.78c.19-.08.51-.15.77-.16l4.6-.14,2.22-.04ZM1117.43,17.79c.3-.42-.04-1.01-.41-1.25l-13.67-9.04c-.48-.32-.97-.24-1.4.09-.18.14-.44.46-.46.64s.26.49.47.64l13.85,9.05c.45.3,1.28.35,1.62-.13Z"/>
      <path class="cls-83" d="M1110.27,4.73c.1.31.33.65.69.87l25.37,15.46-5.23.37-26.69-16.46c.46-.1,1-.12,1.57-.13l4.28-.11ZM1121.83,13.38l-9.28-5.93c-.4-.26-1.31-.06-1.59.3-.17.23.16.86.42,1.03l9.45,6c.38.24,1.04.11,1.19-.16.14-.25.13-1.03-.19-1.24Z"/>
      <path class="cls-83" d="M1143.3,25.08l-2.88.21-38.23,2.17.29-2.53,1.82-.12,4.54-.11,1.87-.11c.04.71.16,1.46.71,1.84.21.15.89.02,1.05-.17.72-.86.1-1.78,1.18-1.79l5.92-.07,1.52-.11c.05.69.17,1.21.67,1.62.24.19.9.11,1.19-.06.88-.51.25-1.72,1.4-1.73l6.27-.03c.17,0,.54-.16.6-.04l.26.47c.31.56.94.96,1.57.83.57-.11.94-.75,1.09-1.37.43-.04,1.01-.16,1.4-.16l5.07-.07c.63,0,1.34-.17,1.96-.08l.74,1.4Z"/>
      <path class="cls-83" d="M1102.51,31.57l-.79-.76-16.44,1.03c-.31.02-.4-.51-.34-.58l3.02-.14,2.84-.16,3.01-.17,2.54-.14,2.99-.17,2.85-.16,3-.16,2.85-.16,2.69-.15,2.6-.14,2.93-.12,2.53-.15,1.89-.11,1.89-.1,3.15-.17,2.84-.15,3-.16,2.84-.16,2.84-.16,2.7-.15,2.83-.16c1.18-.07,2.18-.06,3.35-.4l2.37.92-2.08.17-2.05.16-2.06.16-2.05.16-2.21.17-1.73.14-2.84.17-2.38.15-2.68.16-2.69.17-2.22.14-2.99.18-2.38.14-2.53.15-3.15.17-2.84.16-2.53.15-2.54.16-2.06.07Z"/>
      <polygon class="cls-6" points="1143.3 25.08 1144.02 26.3 1126.52 27.28 1102 28.71 1102.19 27.47 1140.41 25.29 1143.3 25.08"/>
      <path class="cls-94" d="M1111.17,4.64l11.41,6.69,17.79,10.86-7.67.39-1.6-1.14,5.23-.37-25.37-15.46c-.36-.22-.59-.56-.69-.87.27,0,.62-.06.9-.09Z"/>
      <path class="cls-6" d="M1081.49,5.79l-6.66.38,24.7,15.39c.33.21.49.53.56.82-.12-.03-.39-.11-.56-.22l-28.47-17.29c.31-.11.7-.16,1.11-.17l7.09-.3,2.23,1.39Z"/>
      <path class="cls-83" d="M1100.51,29.25c-.85.22-1.45.02-2.15-.4l-23.97-14.53-8.75-5.34c-.15-.09-.28-.4-.24-.54.06-.23.43-.35.68-.2l12.08,7.33,10.38,6.38,11.97,7.29Z"/>
      <path class="cls-83" d="M1144.02,26.3l.18.31-2.34.14-2.68.16-2.68.16-2.38.15-2.68.17-2.53.16-2.69.16-2.54.15-2.37.15-2.83.17-2.69.16-2.53.15-2.69.16-2.69.16-2.38.14-3.17.19c-.14,0-.55-.05-.49-.15l.15-.29,24.52-1.43,17.5-.98Z"/>
      <path class="cls-94" d="M1111.2,17.68l-.33.7c-.1.21-.74.18-.94.05l-9.34-6.29c-.17-.11-.4-.57-.45-.76s.14-.54.33-.68l10.73,6.99Z"/>
      <path class="cls-94" d="M1124.63,19.09c.03.25-.68.44-.96.26l-12.68-7.96c-.35-.22-.55-.84-.29-1.03l13.93,8.73Z"/>
      <path class="cls-36" d="M1090.16,4.01c.83.35,1.45.9,2.08,1.32l-8.71.31c-.73-.46-1.46-.78-2.05-1.26l4.74-.12c1.37-.04,2.65-.1,3.93-.24Z"/>
      <path class="cls-36" d="M1099.84,3.58c.85.32,1.59.94,2.35,1.42l-2.22.04-4.6.14c-.27,0-.59.08-.77.16-.55-.37-1.63-1.05-2.18-1.37l7.41-.4Z"/>
      <path class="cls-36" d="M1108.53,3.09c.97.33,1.78,1.04,2.64,1.55-.28.03-.63.08-.9.09l-4.28.11c-.57.02-1.1.03-1.57.13-.79-.48-1.62-.93-2.34-1.49l6.45-.4Z"/>
      <path class="cls-94" d="M1120.42,22.12c1.06-.13,2.12-.21,3.27-.28l4.4-.26c.14,0,.41-.12.45-.16l1.94,1.25-9,.37c-.36-.33-.74-.72-1.07-.93Z"/>
      <path class="cls-83" d="M1090.16,4.01c-1.27.14-2.56.2-3.93.24l-4.74.12-1.29-.76,3.12-.11,3.08-.14,2.93-.1.82.74Z"/>
      <path class="cls-83" d="M1079.26,4.39l-7.09.3c-.41.02-.8.07-1.11.17l-1.42-.75c.46-.06.95-.16,1.43-.17l3.56-.12c1.15-.04,2.2-.09,3.41-.08.4,0,.91.46,1.22.65Z"/>
      <path class="cls-94" d="M1111.05,22.7c1.77-.39,5.25-.19,6.94-.64l1.55,1.05-7.42.26c-.4.01-.8-.51-1.07-.68Z"/>
      <path class="cls-6" d="M1099.84,3.58l-7.41.4-1.11-.65c.59-.07,1.01-.14,1.43-.15l4.39-.11,2.29-.12.41.64Z"/>
      <path class="cls-94" d="M1101.45,23.52l6.44-.59.35-.03c.08,0,.09-.21.11-.36l1.43,1.31-3.29.17-4.11.2c-.28.01-.69-.48-.94-.7Z"/>
      <path class="cls-83" d="M1108.53,3.09l-6.45.4c-.31-.13-.62-.22-.93-.65l4.67-.09,1.78-.14c.33-.03.79.24.93.49Z"/>
      <path class="cls-94" d="M1117.43,17.79c-.34.48-1.16.42-1.62.13l-13.85-9.05c-.22-.14-.49-.45-.47-.64s.28-.5.46-.64c.43-.33.92-.41,1.4-.09l13.67,9.04c.36.24.7.83.41,1.25Z"/>
      <path class="cls-94" d="M1121.83,13.38c.33.21.34,1,.19,1.24-.16.27-.82.4-1.19.16l-9.45-6c-.26-.17-.59-.8-.42-1.03.28-.36,1.19-.56,1.59-.3l9.28,5.93Z"/>
      <polygon class="cls-83" points="1146.88 69.36 1146.73 66 1149.67 65.65 1146.88 69.36"/>
    </g>
    <g>
      <path class="cls-36" d="M1397.38,41.93c-.58.81-.49,1.7-.48,2.55.03,1.38.44,2.58,1.69,3.51,2,1.49,4.66,1.47,6.83.15,1.5-.92,2.43-2.63,1.96-4.32.61.16,1.23.3,1.85.35-.1,2.59,2.32,4.3,4.74,4.3s5.2-2.19,4.89-4.95c.68-.17,1.26-.04,1.92.03,1.85,2.27-1.57,6.1-3,7.82-.19.23-.23.73.03,1.05,1.13,1.39,3.07,1.8,4.77,1.23l3.66-1.21c.14.29.16.82-.04,1.13-.69,1.05-1.97,1.28-3.06.62-.64,2.86-5.26,3.98-7.74,4.1-2.26.11-4.49-.11-6.63-.87-1.2-.43-3.28-1.55-2.77-3.07.32-.98,1.06-1.54,2.01-2.1-2.52-2.39-15.93,2.06-11.91,5.58,1.57,1.38,3.17,2.9,5.27,3.48.99.27,2.1.23,3.02.62-1.86.53-3.42,2.07-4.03,3.86-.16.47.02,1.06-.06,1.58-.4,2.39.82,4.65,3.11,5.69,2.75,1.25,5.82.42,7.81-1.81,1.04-1.16,1.7-2.42,1.56-4.05-.1-1.07,0-2.2-.96-3.06,3.05,1.03,6.01,2.42,8.8,4.02-3.6.52-6.25,2.28-6.39,6.5-4.13-1.3-8.59,1.21-9.42,5.49-.3,1.55.19,2.98.94,4.17s1.63,2.19,3.04,2.68c3.35,1.18,6.81-.17,8.72-3.09.69-1.06,1.33-2.06,1.22-3.43,4.51,1.2,7.48-1.18,8.93-5.17.14-.06.36-.39.36-.56l-.05-1.26c1.16,1,2.16,2.29,2.69,3.77.65,1.8,0,3.64-1.73,4.46-.75.36-1.55.57-2.43.85.9.5,1.65,1.14,1.63,2.24,0,.44-.49,1.04-.93,1.28-1.5.81-3.42.52-4.64-.67-.39-.38-.67-1.1-.52-1.64.1-.37.55-.8.9-1.19-.61-.2-1.45.49-1.42.97.19,2.92-2.93,4.33-5.32,5.04.86.4,1.67.79,1.95,1.66.62,1.98-2.69,4.44-6.14,4.04-.89-.1-1.55-.59-2.05-1.34-3.24,1.8-6.82,2.18-10.46,2.14-2.2-.03-4.28.21-6.44-.2-1.43-.27-2.82-.65-4.01-1.41-1.63-1.04-1.16-2.36-1.21-3.03,0-.07-.34-.03-.37.04-.23.59-1.25,1.17-1.88,1.5-1.36.72-2.54,1.49-4.02,1.92-2.08.59-4.01.8-6.32.97.12.38.32.76.54,1.08-2.09.33-4.18.96-5.98,2.19-1,.68-1.69,1.78-2.3,2.82-.75,1.28-.79,2.95-.74,4.32.06,1.6.82,2.45,1.86,3.18s1.81,1.68,3.17,2.13c1.87.63,4.05.86,5.98.31.09-.03.42.08.42.1,0,.83-.03,1.68.17,2.59.39,1.87,1.67,3.43,3.32,4.54,4.94,3.34,12.51,1.95,15.53-3.33,1.52-2.66,1.32-5.86-.59-8.27-2.75-3.47-7.79-4.81-12.16-3.22-.07-1.06-.33-2.21-.84-3.18.06,0,.14.01.17,0l.18-.11c10.02.55,29.43,6.38,35.8,14.55,1.23,1.57,1.84,3.51,1.33,5.48-.22.83-.9,1.64-1.59,2.21-2.56,2.14-5.8,3.16-9.12,3.22.15,2.59-2.2,4.51-4.28,5.58-1.45.75-2.9.99-4.5,1.51-.94.3-2.48,1.48-2.68,2.41-.25,1.15-.1,1.83-1.17,2.54-1,.66-2.1,1.4-3.28,1.92-2.9,1.27-5.9,2.01-9.08,2.17-2.49.13-7.23-.2-7.05-3.77-3.41.56-6.7.24-9.98-.92-.41,2.38-2.7,3.98-4.78,4.95-3.82,1.76-8.55,2.64-12.76,2.35-1.95-.14-3.9-.43-5.64-1.35-.47-.25-.89-.46-1.4-.68l-2.36-.99c-2.66.44-6.3.52-8.23-1.5-1.36-1.42-1.49-3.51-.71-5.27,1.13-2.54,3.24-4.35,5.83-5.34,2.88-9.35,16.55-10.49,23.78-5.68,2.46-5.64,9.87-6.57,15.17-5.57l-.59-2.77c-2.41-.27-4.34-.79-6.01-2.68-1.22.23-2.45.56-3.66.65-3.04.23-9.14-.8-9.22-4.86-2.39-.12-5.84-.3-7.77-1.75-1.06-.8-1.09-1.98-.37-3.01.8-1.13,2-1.68,3.42-2.23-2.48-.02-7.22-1.3-6.97-4.63.19-2.5,1.84-3.66,3.9-4.76l.53-1.23c-1.32.44-4.7-.04-4.67-1.53.06-2.44,5.31-3.31,7.32-1.62l1.26-.92c-.44-.72-.15-1.46.45-1.99,1.14-1.02,2.85-.98,4.24-.48.6-.46,1.17-.79,1.79-1.18l2.04-1.28c2.55-6.57,11.65-7.08,17.16-4.39,1.38-.35,2.61-.41,4.01-.36,1.86-1.44,4.14-2.1,6.4-2.06-2.65,1.31-4.97,4.65-4.48,7.65-.11,3.96,3.15,6.97,7.25,6.76,3.53-.18,6.83-2.58,7.87-5.92,1.13-.98,0-5.01-.91-6.27.43-.14.78-.28,1.35-.55-4.27-5.09-4.92-2.61-8.19-3.94-1.23-.5-2.28-1.15-3.02-2.27-3.1.83-10.2-.08-10.09-4.34-2.05-.3-4.56-.62-6.15-1.97-.82-.7-.69-1.66-.04-2.41.89-1.03,2.16-1.24,3.5-1.63-1.91-.14-3.55-.57-4.91-1.74-1.06-.91-1.26-2.25-.67-3.52s1.87-1.86,3.12-2.45c1.58-2.87,4.39-4.76,7.87-4.98,1.74-1.67,3.97-2.85,6.35-3.17-2.76,1.45-3.36,2.68-3.95,5.73-2.14-1.21-4.73-1.04-6.78.43-1.61,1.16-2.18,3.45-1.81,5.38.03.18.38.43.49.41.49,1.31,1.62,2.28,3.05,2.63,2.71.67,5.32-.85,6.23-3.44.46-1.29.34-2.49-.26-3.78.79.88,1.51,1.67,2.62,2.02,2.19.68,4.55.05,6.1-1.59s1.47-3.97.01-5.79c.02-.06-.03-.48-.14-.57-1.18-1.02-3.02-1.68-4.6-1.59-.03,0,.25-.15.33-.15l1.23-.05c1.6-1.15,3.53-1.81,5.44-1.71ZM1383.14,63.33c.22,2.46,1.84,4.42,4.64,4.77s6.43-1.6,6.84-3.82c.11-.59.23-1.51.08-2.04.07-.07.17-.45.13-.61-.45-1.79-1.82-3.22-3.48-3.87-1.97-.77-3.88-.54-5.6.44-2.1,1.2-2.79,3.05-2.61,5.13ZM1364.93,83.31c-.47,2.94.97,5.79,3.67,7.27,4.31,2.36,10.23.24,11.73-4.54.38.11.69-1.65.69-1.86-.03-2.18-1.13-3.84-2.64-5.3-2.79-2.69-7-3.46-10.37-1.37-1.8,1.11-2.73,3.07-3.2,5.08-.05.23.02.6.12.72ZM1365.59,132.34c4.62,4.16,12.91,3.09,16.11-2.41,1.83-3.14,1.08-6.71-1.44-9.15.11-.17,0-.7-.25-.83-4.08-2.23-9.58-2.56-13.5.19-2.92,2.05-4.14,5.64-3.06,9.04.15.48,1.53,3.97,2.15,3.15ZM1342.96,136.6c3.86,4.29,11.19,3.99,15.26-.09,4.41-4.43,2.03-10.1-.17-11.24.08-.16.04-.52-.1-.68-4.08-4.36-11.29-3.25-15.17,1.08-2.69,3.01-3.32,7.33-.64,10.6.2.25.54.38.83.34Z"/>
      <path class="cls-36" d="M1332.62,144.96c-3.61,2.56-9.31,1.3-9.22-1.12.13-3.32,8.22-4.53,9.97-1.43.47.83.15,1.91-.75,2.55Z"/>
      <path class="cls-48" d="M1382.1,98.68c.5.2,1.25.97,1.52,1.48.51.97.78,2.11.84,3.18-3.38,1.91-5.33,3.7-6.26,7.69,0-.03-.33-.13-.42-.1-1.92.55-4.11.31-5.98-.31-1.36-.45-2.13-1.4-3.17-2.13-.06-.44-.15-.99-.32-1.45-.96-2.62-.31-5.44,1.83-7.25,3-2.54,7.1-2.99,10.77-1.56l1.17.46ZM1377.03,98.83c-.18-.13-.83-.17-1.01-.04-1.9,1.39-3.38,3.25-4.31,5.4-.12.28.03.89.26.99,1.4.57,6.15-5.58,5.07-6.35ZM1372.7,99.49c-1.45-1.06-4.24,3.41-3.11,3.81,1.41.49,3.92-3.22,3.11-3.81ZM1374.37,107.38c.49.35,1.21-.06,1.56-.37,1.82-1.64,3.26-3.56,4.31-5.78.21-.43.36-1.2.09-1.54-.35-.44-1.16-.24-1.56.11-1.89,1.6-3.36,3.64-4.43,5.9-.21.45-.4,1.39.02,1.68Z"/>
      <path class="cls-94" d="M1375.8,95.98c1.77-.28,5.67.85,6.3,2.7l-1.17-.46c-3.67-1.43-7.77-.98-10.77,1.56-2.15,1.81-2.79,4.63-1.83,7.25.17.47.26,1.01.32,1.45-1.04-.73-1.81-1.58-1.86-3.18-.05-1.37-.02-3.03.74-4.32.61-1.04,1.31-2.14,2.3-2.82,1.8-1.23,3.9-1.85,5.98-2.19Z"/>
      <path class="cls-48" d="M1383.79,100.15s.12-.11.18-.11l-.18.11Z"/>
      <path class="cls-94" d="M1374.37,107.38c-.42-.3-.23-1.23-.02-1.68,1.06-2.26,2.54-4.3,4.43-5.9.41-.34,1.22-.55,1.56-.11.27.34.11,1.11-.09,1.54-1.06,2.21-2.49,4.13-4.31,5.78-.35.31-1.07.72-1.56.37Z"/>
      <path class="cls-94" d="M1377.03,98.83c1.09.77-3.67,6.93-5.07,6.35-.23-.09-.38-.71-.26-.99.93-2.16,2.42-4.02,4.31-5.4.18-.13.83-.09,1.01.04Z"/>
      <path class="cls-94" d="M1372.7,99.49c.81.59-1.7,4.3-3.11,3.81-1.14-.4,1.66-4.87,3.11-3.81Z"/>
      <path class="cls-48" d="M1396.62,106.56c1.91,2.41,2.11,5.61.59,8.27-3.02,5.28-10.6,6.67-15.53,3.33-1.64-1.11-2.92-2.68-3.32-4.54,1.55-4.9,3.88-8.99,9.82-9.4,2.71-.19,5.3.67,7.66,1.99.27.15.55.27.78.34ZM1383.62,108.85c1.6-.65,4.36-1.85,4.79-3.32.07-.22-.23-.83-.48-.79-1.73.29-5.16,1.8-5.51,3.75-.07.38.85.51,1.2.37ZM1390.91,107.39c-.16-.28-.78-.58-1.17-.51-2.25.4-4.22,1.52-5.74,3.2-.28.31-.55.98-.37,1.31,1.02,1.81,8.27-2.25,7.28-3.99ZM1386.85,115.25c2.86-.89,5.39-2.36,7.45-4.4.33-.33.5-.94.35-1.28-.14-.3-.81-.55-1.25-.44-2.78.69-5.28,2.17-7.37,4.12-.42.4-.84,1.15-.63,1.66.16.41.96.48,1.45.33Z"/>
      <path class="cls-94" d="M1396.62,106.56c-.23-.08-.51-.2-.78-.34-2.36-1.32-4.95-2.18-7.66-1.99-5.94.41-8.27,4.5-9.82,9.4-.19-.91-.16-1.76-.17-2.59.93-3.99,2.88-5.78,6.26-7.69,4.37-1.59,9.41-.24,12.16,3.22Z"/>
      <path class="cls-94" d="M1386.85,115.25c-.49.15-1.29.08-1.45-.33-.2-.51.21-1.27.63-1.66,2.08-1.95,4.58-3.44,7.37-4.12.44-.11,1.11.14,1.25.44.16.34-.02.96-.35,1.28-2.06,2.04-4.59,3.51-7.45,4.4Z"/>
      <path class="cls-94" d="M1390.91,107.39c.98,1.75-6.26,5.8-7.28,3.99-.18-.32.09-1,.37-1.31,1.52-1.67,3.49-2.8,5.74-3.2.39-.07,1.02.23,1.17.51Z"/>
      <path class="cls-94" d="M1383.62,108.85c-.34.14-1.26.01-1.2-.37.35-1.95,3.78-3.46,5.51-3.75.25-.04.54.57.48.79-.44,1.48-3.19,2.68-4.79,3.32Z"/>
      <path class="cls-48" d="M1358.05,125.27c2.2,1.15,4.58,6.82.17,11.24-4.07,4.08-11.4,4.38-15.26.09,0-.24-.08-.59-.16-.72-1.61-3.05-1.17-6.7,1.29-9.21,1.79-1.83,4.25-3.07,6.93-3.04,2.37.02,4.94.56,7.02,1.64ZM1348.37,125.61c-.16-.19-.75-.4-1.01-.31-2.37.81-3.76,3.73-2.8,4.4,1.42.99,4.92-2.78,3.81-4.09ZM1345.82,133.12c.38.34,1.25.12,1.67-.13,2.15-1.28,3.96-3.03,5.14-5.23.26-.48.36-1.25-.16-1.53s-1.32-.07-1.85.26c-1.94,1.17-3.55,2.8-4.7,4.76-.3.51-.63,1.4-.1,1.87ZM1350.79,135.83c2.52-1.49,4.5-3.56,6.08-5.96.41-.62,1.08-2.12.41-2.61-.71-.52-1.98.03-2.68.51-2.31,1.57-4.26,3.53-5.69,5.93-.41.68-.79,1.77-.22,2.4.48.52,1.48.1,2.11-.27Z"/>
      <path class="cls-94" d="M1358.05,125.27c-2.08-1.09-4.65-1.62-7.02-1.64-2.68-.02-5.14,1.22-6.93,3.04-2.46,2.51-2.91,6.16-1.29,9.21.07.14.15.48.16.72-.29.04-.63-.09-.83-.34-2.68-3.27-2.05-7.59.64-10.6,3.88-4.33,11.09-5.43,15.17-1.08.15.16.18.51.1.68Z"/>
      <path class="cls-94" d="M1350.79,135.83c-.63.37-1.63.79-2.11.27-.57-.63-.19-1.72.22-2.4,1.43-2.4,3.38-4.36,5.69-5.93.71-.48,1.97-1.03,2.68-.51.67.49,0,1.99-.41,2.61-1.57,2.4-3.56,4.46-6.08,5.96Z"/>
      <path class="cls-94" d="M1345.82,133.12c-.53-.48-.21-1.36.1-1.87,1.15-1.96,2.76-3.58,4.7-4.76.54-.33,1.33-.54,1.85-.26s.41,1.05.16,1.53c-1.18,2.2-2.99,3.95-5.14,5.23-.42.25-1.29.47-1.67.13Z"/>
      <path class="cls-94" d="M1348.37,125.61c1.11,1.31-2.39,5.08-3.81,4.09-.95-.66.44-3.58,2.8-4.4.26-.09.84.11,1.01.31Z"/>
      <path class="cls-48" d="M1374.23,125.41c-.06.24-.25.47-.47.54l.47-.54Z"/>
      <path class="cls-48" d="M1374.23,125.41c.08-.05.13-.09.15-.11l-.15.11Z"/>
      <path class="cls-48" d="M1380.26,120.78c2.52,2.44,3.26,6.02,1.44,9.15-3.2,5.5-11.49,6.56-16.11,2.41.08-.25.06-.62-.09-.88-1.86-3.33-1.17-7.32,1.69-9.84,3.33-2.94,8.35-3.14,12.25-1.08.24.13.58.22.81.25ZM1371.04,122.47c.23-.48.1-1.03-.27-1.35-.28-.24-.81-.34-1.23-.19-1.71.6-2.33,2.52-1.64,3.04.84.64,2.47-.1,3.14-1.5ZM1373.76,125.94c-.08.22-.22.5-.4.73-.97,1.28-1.8,2.54-2.31,4.07-.13.39-.13,1.28.19,1.46.68.37,1.46-.08,2.02-.51,2.3-1.79,4.11-4.07,5.57-6.61.39-.68.99-2.14.46-2.68-1.2-1.21-4,2.07-4.91,2.9.05-.95,1.7-2.36,1.2-3.67-.24-.63-1.39-.55-1.91-.19-2.05,1.39-3.66,3.31-4.77,5.54-.27.53-.43,1.46-.07,1.88,1.03,1.21,3.89-1.88,4.55-2.64.08-.09.32-.24.39-.27Z"/>
      <path class="cls-94" d="M1380.26,120.78c-.23-.03-.57-.12-.81-.25-3.91-2.06-8.93-1.85-12.25,1.08-2.86,2.52-3.55,6.51-1.69,9.84.15.26.17.64.09.88-.62.82-2-2.67-2.15-3.15-1.07-3.41.15-7,3.06-9.04,3.92-2.75,9.42-2.42,13.5-.19.24.13.36.66.25.83Z"/>
      <path class="cls-94" d="M1374.38,125.3s-.07.05-.15.11l-.47.54c-.07.03-.31.18-.39.27-.66.76-3.51,3.85-4.55,2.64-.36-.42-.2-1.34.07-1.88,1.11-2.23,2.72-4.15,4.77-5.54.53-.36,1.67-.44,1.91.19.5,1.31-1.15,2.72-1.2,3.67Z"/>
      <path class="cls-94" d="M1373.76,125.94c.22-.06.41-.3.47-.54l.15-.11c.91-.83,3.71-4.11,4.91-2.9.53.54-.07,2-.46,2.68-1.46,2.54-3.27,4.82-5.57,6.61-.56.44-1.34.88-2.02.51-.32-.17-.33-1.07-.19-1.46.51-1.53,1.35-2.79,2.31-4.07.18-.23.32-.5.4-.73Z"/>
      <path class="cls-94" d="M1371.04,122.47c-.67,1.41-2.3,2.14-3.14,1.5-.7-.53-.07-2.45,1.64-3.04.42-.15.95-.05,1.23.19.37.32.5.88.27,1.35Z"/>
      <path class="cls-48" d="M1380.33,86.04c-1.5,4.78-7.42,6.9-11.73,4.54-2.7-1.48-4.14-4.34-3.67-7.27.57-.99,1-2.02,1.61-2.98,2.05-3.22,7.84-3.3,11.3-.6,1.56,1.22,2.26,3.12,2.4,5.02l.1,1.29ZM1372.47,78.4c-.36-.38-1.11-.14-1.49.14-1.63,1.22-2.96,2.68-4.02,4.42-.2.33-.36,1.08-.09,1.32,1.21,1.05,6.54-4.88,5.61-5.89ZM1371.14,85.46c1.91-.98,3.39-2.41,4.5-4.17.25-.41.43-1.24.17-1.55-.55-.66-1.35-.31-1.98.02-1.72.88-3.1,2.28-4.11,3.93-.3.48-.5,1.33-.15,1.76.31.37,1.1.26,1.57.02ZM1377.96,81.93c-1.59-1.15-5.5,3.71-4.31,4.82,1.28,1.19,5.6-3.88,4.31-4.82Z"/>
      <path class="cls-94" d="M1380.33,86.04l-.1-1.29c-.14-1.9-.84-3.8-2.4-5.02-3.46-2.71-9.25-2.63-11.3.6-.61.96-1.04,1.99-1.61,2.98-.1-.12-.18-.49-.12-.72.48-2.01,1.41-3.97,3.2-5.08,3.37-2.09,7.58-1.32,10.37,1.37,1.51,1.46,2.61,3.11,2.64,5.3,0,.21-.31,1.98-.69,1.86Z"/>
      <path class="cls-94" d="M1371.14,85.46c-.47.24-1.26.35-1.57-.02-.36-.43-.15-1.27.15-1.76,1.01-1.65,2.39-3.05,4.11-3.93.63-.32,1.43-.68,1.98-.02.26.31.08,1.14-.17,1.55-1.1,1.76-2.58,3.19-4.5,4.17Z"/>
      <path class="cls-94" d="M1372.47,78.4c.94,1.01-4.4,6.94-5.61,5.89-.27-.24-.11-.99.09-1.32,1.06-1.74,2.4-3.2,4.02-4.42.38-.29,1.14-.53,1.49-.14Z"/>
      <path class="cls-94" d="M1377.96,81.93c1.29.94-3.04,6.01-4.31,4.82-1.18-1.1,2.73-5.97,4.31-4.82Z"/>
      <path class="cls-94" d="M1420.62,68.16c3.44-.18,6.28,2.17,7.34,5.34l.05,1.26c0,.17-.22.5-.36.56-.43-3.44-3.17-6.24-6.78-5.95-3.39.27-5.75,3.19-5.73,6.58-.59.02-1.1.01-1.67-.02-2.3-.15-4.65.67-6.14,2.42s-2.08,3.89-1.59,5.97c-.75-1.19-1.24-2.62-.94-4.17.83-4.28,5.29-6.8,9.42-5.49.14-4.23,2.79-5.98,6.39-6.5Z"/>
      <path class="cls-36" d="M1430.48,55.92c.57,1.47-2.61,3.78-5.71,2.61-.45-.17-.86-.7-.94-1.07-.34-1.58,1.73-3.25,4.32-2.97.97.1,1.92.39,2.33,1.44Z"/>
      <path class="cls-94" d="M1390.37,43.84c1.58-.1,3.42.57,4.6,1.59.11.1.16.51.14.57-1-.58-2.05-1.25-3.28-1.35-.9-.07-1.94-.09-2.68.34-2.19,1.29-3.09,3.7-2.93,6.27-1.2-.85-2.38-1.62-3.86-1.64-2.57-.05-4.74,1.92-4.97,4.44-.06.7-.07,1.3-.04,1.89-.11.02-.45-.23-.49-.41-.37-1.93.19-4.22,1.81-5.38,2.06-1.47,4.65-1.65,6.78-.43.59-3.05,1.19-4.28,3.95-5.73.28-.04.67-.14.96-.16Z"/>
      <path class="cls-36" d="M1405.17,54.33c-.91.65-2.64.84-3.21-.27-.33-.64.57-1.34,1.04-1.51,1.05-.37,2.32.14,2.56.86.08.24-.14.73-.39.91Z"/>
      <path class="cls-48" d="M1418.38,42.88c.09.19.43.51.48.64.31,2.76-2.48,4.95-4.89,4.95s-4.83-1.71-4.74-4.3l.05-.21c1-2.34,3.02-3.97,5.63-3.4,1.49.32,2.82.99,3.47,2.32ZM1412.47,43.69c-.06.27-.15.79-.17,1.09,0,.17.42.47.58.43.64-.13,3.25-2.68,2.25-3.33-.19-.13-.74-.13-.92.02l-1.11.95c.1-.31.06-.83-.13-.97-.95-.66-2.64,1.48-2.51,2.55.06.54.94.18,1.16-.15s.55-.56.85-.6ZM1417.23,42.73c-1.2-.6-3.51,2.17-2.54,2.78,1.04.66,3.5-2.3,2.54-2.78Z"/>
      <path class="cls-48" d="M1413.11,42.86c-.08.23-.4.61-.64.83,0-.48.34-.67.64-.83Z"/>
      <path class="cls-48" d="M1427.66,75.33c-1.45,3.98-4.42,6.37-8.93,5.17.12,1.37-.52,2.37-1.22,3.43-1.91,2.92-5.38,4.27-8.72,3.09-1.4-.49-2.29-1.5-3.04-2.68-.49-2.08.13-4.25,1.59-5.97s3.84-2.58,6.14-2.42c.57.04,1.08.05,1.67.02-.02-3.39,2.34-6.31,5.73-6.58,3.62-.29,6.35,2.5,6.78,5.95ZM1420.71,70.57c-1.43-.94-5.83,3.93-4.55,4.67s5.82-3.84,4.55-4.67ZM1423.96,70.7c-1.61-.87-5.74,4.18-4.6,5.04,1.26.96,5.95-4.32,4.6-5.04ZM1426.22,73.03c-1.06-1.22-5.15,2.18-4.26,3.82.73,1.34,5.31-2.61,4.26-3.82ZM1411.03,76.89c-1.36-.71-5.05,3.27-4.01,3.94s5.11-3.37,4.01-3.94ZM1414.16,77.48c-.14-.15-.71-.27-.9-.18-1.82.83-3.34,2.17-4.41,3.85-.14.23-.08.88.11,1.04.96.84,6.16-3.71,5.21-4.7ZM1416.51,79.36c-1.46-.79-4.02,1.58-4.93,2.63-.42.48-.77,1.59-.22,1.96,1.33.92,6.64-3.79,5.16-4.59Z"/>
      <path class="cls-94" d="M1423.96,70.7c1.35.73-3.34,6.01-4.6,5.04-1.14-.87,2.99-5.91,4.6-5.04Z"/>
      <path class="cls-94" d="M1420.71,70.57c1.28.84-3.27,5.41-4.55,4.67s3.11-5.61,4.55-4.67Z"/>
      <path class="cls-94" d="M1426.22,73.03c1.05,1.21-3.54,5.16-4.26,3.82-.89-1.64,3.2-5.04,4.26-3.82Z"/>
      <path class="cls-94" d="M1416.51,79.36c1.48.8-3.83,5.51-5.16,4.59-.55-.38-.2-1.48.22-1.96.91-1.05,3.47-3.42,4.93-2.63Z"/>
      <path class="cls-94" d="M1414.16,77.48c.95,1-4.25,5.54-5.21,4.7-.18-.16-.25-.81-.11-1.04,1.07-1.68,2.59-3.02,4.41-3.85.19-.09.76.03.9.18Z"/>
      <path class="cls-94" d="M1411.03,76.89c1.1.58-2.98,4.61-4.01,3.94s2.64-4.66,4.01-3.94Z"/>
      <path class="cls-94" d="M1413.11,42.86c-.3.16-.63.35-.64.83-.3.04-.63.28-.85.6s-1.09.7-1.16.15c-.13-1.07,1.56-3.21,2.51-2.55.19.13.23.65.13.97Z"/>
      <path class="cls-94" d="M1412.47,43.69c.24-.22.56-.6.64-.83l1.11-.95c.18-.15.72-.15.92-.02,1,.65-1.61,3.2-2.25,3.33-.16.03-.59-.26-.58-.43.01-.3.1-.82.17-1.09Z"/>
      <path class="cls-94" d="M1417.23,42.73c.96.48-1.5,3.45-2.54,2.78-.97-.62,1.34-3.38,2.54-2.78Z"/>
      <path class="cls-48" d="M1395.11,46c1.46,1.82,1.56,4.12-.01,5.79s-3.91,2.27-6.1,1.59c-1.12-.35-1.83-1.14-2.62-2.02.6,1.29.72,2.49.26,3.78-.92,2.59-3.53,4.12-6.23,3.44-1.43-.35-2.56-1.32-3.05-2.63-.03-.59-.02-1.19.04-1.89.23-2.52,2.4-4.49,4.97-4.44,1.48.03,2.66.8,3.86,1.64-.17-2.56.73-4.98,2.93-6.27.75-.44,1.78-.41,2.68-.34,1.22.09,2.28.77,3.28,1.35ZM1390.11,45.67c-.77-.9-3.2,2.29-2.59,2.72.85.6,3.13-2.08,2.59-2.72ZM1392.43,45.85c-1.12-.73-3.79,2.71-3.05,3.8.96.5,3.88-3.25,3.05-3.8ZM1394.13,47.06c-.99-.7-3.04,2.15-2.45,3.09.63.99,3.4-2.42,2.45-3.09ZM1383.61,50.97c-.12-.09-.64-.14-.78-.04l-1.73,1.34c.14-.56.34-.97.25-1.25-.49-1.58-3.91,2.28-3,2.83s2.37-1.66,2.75-1.67c.07.6-1.37,1.45-.8,2.32.53.81,4.15-2.91,3.31-3.54ZM1385.52,52.48c-.77-1.05-4.11,2.04-2.99,2.94.74.6,3.68-2.01,2.99-2.94Z"/>
      <path class="cls-94" d="M1383.61,50.97c.85.63-2.78,4.35-3.31,3.54-.57-.87.87-1.72.8-2.32-.37,0-1.81,2.23-2.75,1.67s2.51-4.41,3-2.83c.09.28-.12.69-.25,1.25l1.73-1.34c.14-.11.65-.06.78.04Z"/>
      <path class="cls-94" d="M1385.52,52.48c.69.93-2.25,3.54-2.99,2.94-1.11-.9,2.22-3.99,2.99-2.94Z"/>
      <path class="cls-94" d="M1392.43,45.85c.83.55-2.09,4.29-3.05,3.8-.74-1.09,1.93-4.53,3.05-3.8Z"/>
      <path class="cls-94" d="M1394.13,47.06c.95.67-1.83,4.08-2.45,3.09-.59-.94,1.46-3.79,2.45-3.09Z"/>
      <path class="cls-94" d="M1390.11,45.67c.55.64-1.74,3.32-2.59,2.72-.61-.43,1.82-3.61,2.59-2.72Z"/>
      <path class="cls-94" d="M1391.68,79.85l.3-.49.32-.32c.14-.14.38-.36.49-.5.69-.58,2.55-2.09,3.35-1.18,1.19,1.37-3.32,6.57-5.02,5.5-.84-.53.26-2.36.57-3.01Z"/>
      <path class="cls-94" d="M1400.27,76.97c.91,1.25,2.03,5.29.91,6.27l-.24-1.48c-.16-.98-.33-2.07-.89-2.92-1.3-1.97-3.9-3.45-6.26-3.15.26,1.37-1.03,2.05-1,2.85-.23.01-.42.18-.49.5l-.32.32c-.11.11-.18.23-.3.49-.92.15-2.85,3.34-4.37,2.39-.25-1.72,3.05-4.78,4.2-5.94-2.41.89-4.11,2.81-4.87,5.25-.09.28-.41.66-.59.85-.49-3,1.83-6.34,4.48-7.65l2.27-.62c1.38-.38,2.74-.29,4.1.36,1.16.56,2.58,1.4,3.36,2.48Z"/>
      <path class="cls-48" d="M1392.79,78.55c-.11.14-.36.36-.49.5.07-.32.26-.49.49-.5Z"/>
      <path class="cls-48" d="M1401.17,83.24c-1.04,3.34-4.34,5.75-7.87,5.92-4.1.2-7.35-2.81-7.25-6.76.18-.19.5-.57.59-.85.75-2.44,2.45-4.35,4.87-5.25-1.15,1.16-4.45,4.21-4.2,5.94,1.52.96,3.45-2.24,4.37-2.39-.3.65-1.41,2.48-.57,3.01,1.7,1.07,6.22-4.12,5.02-5.5-.79-.91-2.66.6-3.35,1.18-.04-.8,1.26-1.48,1-2.85,2.35-.3,4.95,1.17,6.26,3.15.56.84.73,1.94.89,2.92l.24,1.48ZM1399.02,79.45c-1.79-1.33-5.69,3.61-4.21,4.64,1.66,1.15,5.64-3.58,4.21-4.64Z"/>
      <path class="cls-48" d="M1392.3,79.04l-.32.32.32-.32Z"/>
      <path class="cls-48" d="M1391.68,79.85c.12-.26.18-.38.3-.49l-.3.49Z"/>
      <path class="cls-94" d="M1399.02,79.45c1.44,1.07-2.54,5.8-4.21,4.64-1.48-1.03,2.41-5.98,4.21-4.64Z"/>
      <path class="cls-94" d="M1411.82,64.14c.97.86.86,2,.96,3.06-.09-.08-.25-.29-.31-.45-1.71-4.28-7.31-4.86-10.03-2.54-1.01.86-1.49,2.09-2.14,3.15.09-.51-.1-1.1.06-1.58.61-1.79,2.17-3.33,4.03-3.86,2.87-.81,5.56.21,7.43,2.21Z"/>
      <path class="cls-48" d="M1412.78,67.2c.15,1.62-.52,2.89-1.56,4.05-1.99,2.23-5.06,3.05-7.81,1.81-2.29-1.04-3.51-3.3-3.11-5.69.65-1.06,1.13-2.29,2.14-3.15,2.72-2.32,8.32-1.74,10.03,2.54.06.16.22.37.31.45ZM1408.59,64.02c-1.36-.8-4.87,3.96-3.8,4.83,1.04.84,5.01-4.12,3.8-4.83ZM1404.91,64.32c-1.31-.73-4.25,3.94-3.33,4.38,1.18.56,4.33-3.82,3.33-4.38ZM1411.03,65.7c-1.36-.88-5.04,3.68-3.84,4.71,1.01.86,5.02-3.94,3.84-4.71Z"/>
      <path class="cls-94" d="M1411.03,65.7c1.18.77-2.83,5.57-3.84,4.71-1.2-1.02,2.47-5.59,3.84-4.71Z"/>
      <path class="cls-94" d="M1408.59,64.02c1.22.71-2.76,5.67-3.8,4.83-1.07-.87,2.43-5.62,3.8-4.83Z"/>
      <path class="cls-94" d="M1404.91,64.32c1,.56-2.15,4.94-3.33,4.38-.92-.44,2.01-5.11,3.33-4.38Z"/>
      <path class="cls-48" d="M1394.7,62.24c.15.53.03,1.45-.08,2.04-.42,2.22-4.18,4.15-6.84,3.82-2.79-.35-4.42-2.3-4.64-4.77.79-1.45.51-2.72,2.25-3.84,2.13-1.37,4.77-1.4,7-.2,1.19.64,1.96,1.68,2.31,2.94ZM1387.81,59.34c-1.08-.36-3.52,3.14-2.91,3.82.67.75,3.91-3.48,2.91-3.82ZM1390.71,59.28c-1.12-.81-4.97,3.98-3.57,4.66.91.44,4.51-3.98,3.57-4.66ZM1393.2,60.95c-1.39-.85-4.29,3.03-3.01,3.64,1.1.52,4-3.04,3.01-3.64Z"/>
      <path class="cls-94" d="M1394.7,62.24c-.36-1.26-1.12-2.3-2.31-2.94-2.23-1.2-4.87-1.17-7,.2-1.74,1.12-1.46,2.39-2.25,3.84-.18-2.08.51-3.93,2.61-5.13,1.72-.98,3.63-1.22,5.6-.44,1.66.65,3.03,2.08,3.48,3.87.04.15-.06.54-.13.61Z"/>
      <path class="cls-94" d="M1390.71,59.28c.94.68-2.66,5.1-3.57,4.66-1.4-.68,2.45-5.47,3.57-4.66Z"/>
      <path class="cls-94" d="M1393.2,60.95c.98.6-1.91,4.16-3.01,3.64-1.28-.61,1.62-4.49,3.01-3.64Z"/>
      <path class="cls-94" d="M1387.81,59.34c1,.33-2.24,4.56-2.91,3.82-.61-.68,1.83-4.18,2.91-3.82Z"/>
      <path class="cls-48" d="M1406.22,41.95c.54.36.99,1.25,1.16,1.88.46,1.69-.46,3.4-1.96,4.32-2.17,1.33-4.83,1.34-6.83-.15-1.25-.93-1.66-2.13-1.69-3.51.82-1.9,1.69-3.25,4-3.73,1.89-.39,3.78.16,5.32,1.19ZM1401.21,41.6c-.68-.88-3.98,2.58-3.01,2.95.86.32,3.53-2.28,3.01-2.95ZM1403.73,41.65c-.9-.91-4.64,2.89-3.6,3.4.96.47,4.27-2.72,3.6-3.4ZM1405.44,43.1c-1.16-.67-3.63,2.17-2.74,3.06.82.82,3.77-2.47,2.74-3.06Z"/>
      <path class="cls-94" d="M1403.73,41.65c.67.68-2.65,3.87-3.6,3.4-1.04-.51,2.7-4.31,3.6-3.4Z"/>
      <path class="cls-94" d="M1405.44,43.1c1.03.59-1.91,3.89-2.74,3.06-.89-.89,1.58-3.73,2.74-3.06Z"/>
      <path class="cls-94" d="M1401.21,41.6c.52.67-2.16,3.27-3.01,2.95-.97-.37,2.34-3.83,3.01-2.95Z"/>
      <path class="cls-94" d="M1426.24,52.45l-3.66,1.21c-1.7.56-3.64.16-4.77-1.23-.26-.32-.22-.82-.03-1.05l1.04.51c1.34.22,2.88-.6,3.51-1.87,1.8-3.58,4.01-11.91.87-14.99-1.08-1.06-1.57-2.25-2.03-3.65-1.92-5.92-7.93-11.97-14.49-12.51-.91.63-1.64,1.34-2.25,2.27-3.14,4.78-2.63,11.53-.73,16.72.26.71.42,1.51.52,2.2.84.46,1.78.94,1.98,1.89-1.54-1.02-3.43-1.57-5.32-1.19-2.31.47-3.18,1.83-4,3.73-.02-.85-.1-1.74.48-2.55.93-1.3,2.33-1.97,3.94-2.29-2.64-6.42-2.93-14.99,1.04-20.63.95-1.34,2.1-2.68,3.61-3.39l14.09-1.19,4.76,2.15,8.32-4.5c1.04-.56,2.03-.62,3.16-.36,1.91.44,3.62,1.22,5.12,2.55,2.37,2.09,4.11,4.68,5.24,7.67,1.25,3.31,1.87,6.81,1.72,10.35-.03.83-.16,1.63-.28,2.44-.47,3.21-1.58,6.28-3.62,8.8-.71.88-1.45,1.83-2.5,2.27l-15.75,6.64ZM1426.41,35.05c.37.89.58,1.78.78,2.73.18,4.72-.25,6.52-1.65,11.17l12.52-5.61c1.18-.53,2.51-.85,3.51-1.62,1.64-1.25,2.59-3.3,3.15-5.31,1.58-5.7.64-11.89-2.43-16.89-1.7-2.76-4.22-4.59-7.41-5.14l-8.48,4.54c-.76.41-1.71.78-2.51.95l-5-2.46-5.7.51c4.78,2.68,9,7.93,9.89,13.22l1.94,2.21c.47.54,1.1,1.01,1.39,1.69Z"/>
      <path class="cls-49" d="M1420.78,43.55c-.66-.06-1.24-.19-1.92-.03-.06-.13-.39-.45-.48-.64l.28-.02-.44-.96c-.99-1.33-2.56-2.17-4.19-2.26,0-.04.14-.36.22-.43.48-.43.45-1.94-.43-1.98l-2.95,1.16c-.83.32-3.4.28-3.41-.87-.01-.94,1.23-1.04,1.88-1.45,1.08-.68,1.79-1.77,2.37-2.93-1.33-.78-2.73-.86-4.22-.84-.83,0-1.82-.61-1.49-1.51.79-.94,1.16-.51,2.86-1.61.41-.27.82-1.08.45-1.48-1.72-1.87-3.97-.65-4.3-1.42-.31-.71,1.44-2,1.51-4.66.02-.89.51-1.62,1.51-1.59,2.58.09,6.04,2.72,7.72,4.72,2.28,2.7,3.79,5.77,4.55,9.2,1.19,1.11,2.68,2.22,3.2,3.78.81,2.42.16,5.1-.87,7.44-.57-1.12-.93-1.52-1.83-1.61Z"/>
      <path class="cls-83" d="M1417.78,51.38c1.43-1.72,4.85-5.55,3-7.82.91.09,1.26.49,1.83,1.61,1.03-2.34,1.68-5.02.87-7.44-.52-1.56-2.01-2.68-3.2-3.78-.76-3.43-2.27-6.49-4.55-9.2-1.68-1.99-5.14-4.62-7.72-4.72-1-.04-1.48.69-1.51,1.59-.07,2.66-1.82,3.95-1.51,4.66.34.77,2.59-.45,4.3,1.42.37.4-.04,1.22-.45,1.48-1.69,1.1-2.07.68-2.86,1.61-.32.91.67,1.52,1.49,1.51,1.49-.02,2.88.06,4.22.84-.58,1.16-1.29,2.25-2.37,2.93-.65.41-1.89.5-1.88,1.45.02,1.15,2.59,1.2,3.41.87l2.95-1.16c.88.03.91,1.55.43,1.98-.08.07-.22.4-.22.43-2.28-.13-4.97,1.92-4.75,4.33l-.05.21c-.62-.06-1.24-.2-1.85-.35-.17-.63-.63-1.52-1.16-1.88-.2-.95-1.14-1.42-1.98-1.89-.1-.69-.26-1.49-.52-2.2-1.9-5.19-2.41-11.94.73-16.72.61-.93,1.34-1.64,2.25-2.27,6.56.54,12.56,6.6,14.49,12.51.46,1.4.95,2.59,2.03,3.65,3.14,3.08.93,11.41-.87,14.99-.63,1.26-2.17,2.09-3.51,1.87l-1.04-.51Z"/>
      <path class="cls-83" d="M1426.41,35.05c-.28-.68-.91-1.15-1.39-1.69l-1.94-2.21c-.89-5.3-5.11-10.54-9.89-13.22l5.7-.51,5,2.46c.8-.17,1.75-.55,2.51-.95l8.48-4.54c3.19.55,5.72,2.38,7.41,5.14,3.07,4.99,4.01,11.19,2.43,16.89-.56,2.01-1.5,4.07-3.15,5.31-1.01.76-2.34,1.09-3.51,1.62l-12.52,5.61c1.4-4.66,1.83-6.45,1.65-11.17-.2-.95-.42-1.84-.78-2.73ZM1435.35,20.38c.8-.4,1.95-1.76,1.27-2.68-.22-.3-1.06-.62-1.47-.41l-6.01,3.1c-.49.25-1.06.91-.95,1.49s.71.97,1.1,1.07c.57.15,1.03-.02,1.53-.27l4.53-2.3ZM1429.93,27.86c.1.8.75,1.22,1.26,1.35.59.15,1.15-.2,1.63-.54l6.24-4.49c.52-.37.81-1.58.65-2.14-.19-.65-1.36-.69-1.88-.33l-7.17,4.97c-.31.22-.78.79-.73,1.17ZM1429.55,24.45c-.18-.46-.75-1.18-1.17-1.28l-6.33-1.43c-.47-.11-1.31.1-1.56.48-.51.76.1,1.98,1,2.21,1.9.49,3.75.91,5.73,1.3.86.17,2-.49,2.33-1.29ZM1433.7,31.56c-.36-1.01-1.24-1.27-2.04-1.45l-6.24-1.34c-.47-.1-1.37.08-1.59.47-.53.93.16,2.05,1.14,2.27l6.4,1.44c.56.13,1.22.23,1.64-.1.3-.24.85-.87.7-1.29ZM1436.33,34.96l5.38-3.34.66-.79c.27-.32.46-.96.26-1.35-.14-.28-.67-.62-1.04-.63-.88-.02-1.54.47-2.25.91l-4.84,3c-.33.2-.65.77-.62,1.08s.29.78.56.98c.56.42,1.26.54,1.88.15ZM1428.86,39.92c1.41-.2,6.81-2.62,5.16-4.39-.7-.39-1.62-.42-2.37,0l-3.46,1.95c-.56.32-.61.99-.33,1.51.22.4.5.71,1.01.92ZM1436.82,41.06l3.61-1.74c.54-.26,1.04-.65,1.33-1.21.23-.43.13-1.07-.11-1.41-.18-.26-.78-.71-1.18-.52l-11.94,5.81c-.76.37-.85,1.15-.53,1.8.17.34.74,1.03,1.19.82l7.61-3.54Z"/>
      <path class="cls-94" d="M1414.03,39.64c1.63.09,3.2.92,4.19,2.26l.44.96-.28.02c-.65-1.32-1.98-2-3.47-2.32-2.61-.56-4.63,1.07-5.63,3.4-.22-2.41,2.47-4.46,4.75-4.33Z"/>
      <path class="cls-94" d="M1436.82,41.06l-7.61,3.54c-.46.21-1.02-.48-1.19-.82-.33-.65-.23-1.43.53-1.8l11.94-5.81c.4-.2,1,.26,1.18.52.24.34.34.98.11,1.41-.3.56-.79.94-1.33,1.21l-3.61,1.74Z"/>
      <path class="cls-94" d="M1429.93,27.86c-.05-.38.42-.95.73-1.17l7.17-4.97c.52-.36,1.69-.32,1.88.33.16.56-.13,1.77-.65,2.14l-6.24,4.49c-.48.35-1.04.7-1.63.54-.51-.13-1.16-.55-1.26-1.35Z"/>
      <path class="cls-94" d="M1433.7,31.56c.15.42-.4,1.05-.7,1.29-.41.33-1.08.22-1.64.1l-6.4-1.44c-.98-.22-1.67-1.33-1.14-2.27.22-.39,1.12-.57,1.59-.47l6.24,1.34c.8.17,1.69.44,2.04,1.45Z"/>
      <path class="cls-94" d="M1436.33,34.96c-.63.39-1.33.27-1.88-.15-.27-.2-.53-.67-.56-.98s.29-.87.62-1.08l4.84-3c.71-.44,1.37-.93,2.25-.91.37,0,.9.35,1.04.63.2.39,0,1.03-.26,1.35l-.66.79-5.38,3.34Z"/>
      <path class="cls-94" d="M1435.35,20.38l-4.53,2.3c-.5.25-.96.42-1.53.27-.39-.1-.99-.5-1.1-1.07s.46-1.23.95-1.49l6.01-3.1c.41-.21,1.25.12,1.47.41.67.92-.48,2.28-1.27,2.68Z"/>
      <path class="cls-94" d="M1429.55,24.45c-.33.8-1.47,1.46-2.33,1.29-1.98-.4-3.83-.82-5.73-1.3-.91-.23-1.51-1.45-1-2.21.25-.38,1.09-.58,1.56-.48l6.33,1.43c.42.1,1,.82,1.17,1.28Z"/>
      <path class="cls-94" d="M1428.86,39.92c-.51-.22-.79-.52-1.01-.92-.28-.52-.23-1.2.33-1.51l3.46-1.95c.76-.43,1.68-.39,2.37,0,1.65,1.77-3.75,4.19-5.16,4.39Z"/>
    </g>
    <g>
      <path class="cls-36" d="M1193.03,138.17c-.82,3.01.38,6.3,2.87,8.36,4.9,4.06,12.44,2.65,16.39-1.94,1.75-2.04,2.39-4.66,1.89-7.23,1.47.93,2.76,2.24,3.6,3.83,1.39,2.65.86,5.64-1.29,7.67-1.4,1.32-3.09,2.02-4.88,2.76-.74.31-1.49.78-2.31.94-4.76.96-10.76.64-15.35-.76.26,3.73-3.83,5.68-6.69,6.24-6.01,1.18-12.33.12-17.5-3.1-1.83-1.14-3.24-2.6-4.02-4.51-5.28,3.44-13.91,4.69-19.92,4.35-1.63-.09-5.5-.8-5.51-2.79,0-.7.46-1.37,1.03-2.02-1.74-.6-3.4-1.35-4.72-2.52-1.43-1.27-1.56-3.11-.19-4.5s3.33-2.24,5.22-2.86c.05-.27-.32,3.64.59,3.3.65,2.31,2.12,4.29,4.32,5.52,4.96,2.78,11.23,1.81,15.16-2.3,1.73-1.81,2.55-4.13,2.37-6.65,1.6.32,3.16,1.15,5.04,1.41-.02.46.11,1.05.29,1.55.25,2.76,2.06,5.18,4.65,6.5,4.89,2.49,10.93,1.09,14.4-3.13,1.62-1.97,2.01-4.34,1.44-6.79l1.45-.67c.63-.29,1.16-.54,1.61-.97l.03.32Z"/>
      <path class="cls-36" d="M1228.6,146.68c-2.09,1.51-4.98,1.42-6.87-.15-1.17-.96-1.33-2.59-.24-3.63,1.91-1.83,5-2.14,7.09-.48.66.53,1.07,1.36,1.12,2.11s-.36,1.61-1.1,2.15Z"/>
      <path class="cls-36" d="M1138.41,151.24c.12,1.51-3.84,2.87-7.02,1.23-.47-.24-.88-.84-.84-1.31.14-1.61,4.11-3.11,7.21-1.15.3.19.62.91.64,1.24Z"/>
      <path class="cls-36" d="M1170.9,157.25c.16,1.77-3.64,3.25-6.2,1.72-.68-.41-1.26-1.28-.75-2,1.37-1.93,4.15-2.46,6.18-1.17.43.27.72.99.77,1.45Z"/>
      <path class="cls-48" d="M1213.02,134.88c.39.67,1.01,1.72,1.16,2.49.5,2.57-.13,5.19-1.89,7.23-3.96,4.59-11.49,6-16.39,1.94-2.49-2.06-3.69-5.35-2.87-8.36,1.34-2.42,2.53-4.76,5.25-6.36,2.99-1.77,6.78-1.84,9.94-.34,1.85.88,3.33,2.16,4.81,3.4ZM1203.27,132.53c-1.35-1.79-7.87,2.22-6.81,3.92s8.1-2.2,6.81-3.92ZM1199.06,141.27c3.14-.85,5.89-2.32,8.3-4.33.48-.4,1.03-1.19.92-1.76-.14-.72-1.13-.91-1.77-.77-3.25.73-6.15,2.31-8.64,4.5-.48.42-.97,1.29-.77,1.85.24.66,1.24.7,1.94.51ZM1202.81,145.13c3.07-.72,5.78-2.18,7.91-4.3.53-.52.96-1.42.52-2.03-.52-.74-1.53-.67-2.38-.5-2.88.58-5.51,2.04-7.6,4.07-.55.54-1.04,1.58-.66,2.27.32.59,1.42.67,2.21.49Z"/>
      <path class="cls-94" d="M1213.02,134.88c-1.48-1.24-2.96-2.52-4.81-3.4-3.15-1.5-6.95-1.43-9.94.34-2.71,1.6-3.9,3.94-5.25,6.36l-.03-.32c.41-2.59,1.32-5.13,3.53-6.81,1.14-.87,2.52-1.63,3.95-1.95,3.12-.7,6.35-.05,9.06,1.64.76.47,3.78,3.1,3.48,4.15Z"/>
      <path class="cls-94" d="M1202.81,145.13c-.79.18-1.89.1-2.21-.49-.37-.68.12-1.73.66-2.27,2.09-2.04,4.72-3.5,7.6-4.07.85-.17,1.86-.23,2.38.5.44.61,0,1.51-.52,2.03-2.13,2.12-4.84,3.57-7.91,4.3Z"/>
      <path class="cls-94" d="M1199.06,141.27c-.7.19-1.7.16-1.94-.51-.21-.56.29-1.44.77-1.85,2.49-2.19,5.39-3.76,8.64-4.5.63-.14,1.63.04,1.77.77.11.56-.44,1.36-.92,1.76-2.41,2.01-5.17,3.48-8.3,4.33Z"/>
      <path class="cls-94" d="M1203.27,132.53c1.29,1.72-5.77,5.58-6.81,3.92s5.46-5.72,6.81-3.92Z"/>
      <path class="cls-48" d="M1163.32,137.5c.46.82.68,1.65.79,2.47.18,2.52-.64,4.84-2.37,6.65-3.92,4.11-10.19,5.08-15.16,2.3-2.2-1.23-3.67-3.21-4.32-5.52l.71-2.79c.67-2.63,2.52-4.7,4.95-5.95,4.78-2.47,10.57-1.43,14.37,2.35.24.24.78.43,1.03.49ZM1146.78,141.52c2.68-1.09,4.78-2.92,6.23-5.28.21-.35.14-1.19-.12-1.42-.23-.19-.92-.4-1.24-.28-2.68.99-4.87,2.88-6.31,5.3-.23.39-.21,1.27.06,1.51.24.21.93.35,1.38.17ZM1161.88,138.35c-1.44-1.34-4.83,1.44-6.31,2.35.64-.9,3.44-3.63,2.45-4.68-.77-.82-2.33-.12-3.12.38-1.78,1.11-6.94,5.06-6.21,7.34.14.44,1.21.56,1.65.38,1.49-.64,2.62-1.5,4.04-2.42l-2.74,3.37c-2.31,7.15,12.64-4.47,10.24-6.72Z"/>
      <path class="cls-94" d="M1163.32,137.5c-.26-.06-.8-.25-1.03-.49-3.8-3.79-9.59-4.82-14.37-2.35-2.43,1.25-4.28,3.32-4.95,5.95l-.71,2.79c-.91.34-.54-3.58-.59-3.3,1.3-6.58,7.69-9.32,13.69-8.48,3.05.43,5.66,2.15,7.52,4.5.32.41.46.96.44,1.39Z"/>
      <path class="cls-94" d="M1161.88,138.35c2.41,2.25-12.55,13.87-10.24,6.72l2.74-3.37c-1.42.92-2.55,1.78-4.04,2.42-.44.19-1.5.07-1.65-.38-.73-2.27,4.43-6.22,6.21-7.34.79-.5,2.35-1.2,3.12-.38.99,1.05-1.82,3.78-2.45,4.68,1.47-.92,4.87-3.7,6.31-2.35Z"/>
      <path class="cls-94" d="M1146.78,141.52c-.45.18-1.15.04-1.38-.17-.27-.24-.29-1.12-.06-1.51,1.43-2.42,3.63-4.31,6.31-5.3.32-.12,1.01.08,1.24.28.26.22.34,1.07.12,1.42-1.45,2.37-3.55,4.2-6.23,5.28Z"/>
      <path class="cls-48" d="M1189.72,138.76l.21.73c.57,2.45.18,4.82-1.44,6.79-3.47,4.22-9.51,5.62-14.4,3.13-2.59-1.32-4.41-3.73-4.65-6.5.22-.29.33-.64.45-1.13.46-2.02,1.53-4.11,3.32-5.33,4.38-2.98,12.27-3.26,15.6,1.66.26.38.54.66.92.63ZM1178.23,136.4c-1.34-2.1-6.99,2.68-5.43,3.89,1.64,1.27,6.3-2.53,5.43-3.89ZM1177.5,143.85c2.74-1.32,5.03-3.16,6.77-5.52.34-.46.41-1.22.17-1.54-.29-.38-1.12-.66-1.65-.46-2.98,1.13-5.44,3.18-7.33,5.73-.34.46-.6,1.39-.19,1.79.49.48,1.53.33,2.23,0ZM1179.84,148.13c3.37-1.4,6.2-3.6,8.27-6.47.41-.57.65-1.58.07-1.99-.7-.5-1.74-.28-2.53.09-2.78,1.32-5.28,3.24-7.14,5.68-.54.71-1.02,1.74-.51,2.54.24.38,1.29.39,1.85.16Z"/>
      <path class="cls-94" d="M1189.72,138.76c-.38.03-.66-.25-.92-.63-3.33-4.92-11.23-4.64-15.6-1.66-1.78,1.22-2.85,3.31-3.32,5.33-.11.49-.23.84-.45,1.13-.18-.5-.31-1.1-.29-1.55.27-6.3,7.85-9.49,13.8-8.33,3.18.62,5.92,2.71,6.77,5.72Z"/>
      <path class="cls-94" d="M1179.84,148.13c-.57.24-1.61.22-1.85-.16-.5-.79-.03-1.83.51-2.54,1.87-2.44,4.36-4.36,7.14-5.68.79-.37,1.83-.59,2.53-.09.58.42.34,1.43-.07,1.99-2.07,2.87-4.89,5.07-8.27,6.47Z"/>
      <path class="cls-94" d="M1177.5,143.85c-.7.34-1.74.48-2.23,0-.41-.4-.15-1.33.19-1.79,1.89-2.55,4.35-4.6,7.33-5.73.52-.2,1.36.08,1.65.46.24.32.17,1.08-.17,1.54-1.74,2.37-4.03,4.21-6.77,5.52Z"/>
      <path class="cls-94" d="M1178.23,136.4c.87,1.36-3.79,5.16-5.43,3.89s4.08-6,5.43-3.89Z"/>
    </g>
    <g>
      <path class="cls-36" d="M1279.49,106.77v8.57h-3.04v-8.57h-1.67v-2.71h6.39v2.71h-1.67Z"/>
      <path class="cls-36" d="M1286.81,110.54c-.25-.15-.51-.25-.81-.25-.35,0-.71.17-.93.46-.29.37-.3.78-.3,1.22v3.38h-2.93v-7.9h2.93l-.15,1.54c.41-1.01,1.05-1.69,2.2-1.72v3.28Z"/>
      <path class="cls-36" d="M1291.76,115.34c.03-.44.07-.9.1-1.34-.42.85-1.01,1.5-2.03,1.5-2,0-2.4-2.64-2.4-4.16s.46-4.07,2.47-4.07c.95,0,1.52.63,1.89,1.42-.03-.42-.03-.83-.08-1.25h2.99v7.9h-2.94ZM1291.12,109.7c-.76,0-.74,1.45-.74,1.98,0,.44.03,1.42.66,1.42.78,0,.69-1.52.69-2.05,0-.42-.02-1.35-.61-1.35Z"/>
      <path class="cls-36" d="M1300.63,110.07c-.3-.3-.74-.69-1.2-.69-.22,0-.46.12-.46.37,0,.95,2.79.61,2.79,2.99,0,1.79-1.52,2.77-3.18,2.77-1.1,0-1.86-.32-2.81-.83l1.07-2.18c.35.37.93.83,1.47.83.25,0,.58-.12.58-.42,0-.81-2.84-.59-2.84-2.92,0-1.76,1.66-2.71,3.25-2.71.85,0,1.61.27,2.35.64l-1.01,2.15Z"/>
      <path class="cls-36" d="M1306.75,115.34v-4.18c0-.34.02-.96-.46-.96-.57,0-.62.74-.62,1.17v3.97h-2.93v-12.33h2.93v4.41c0,.51-.03,1.01-.07,1.52.39-.91,1.01-1.67,2.08-1.67,1.52,0,2.01,1.39,2.01,2.69v5.38h-2.94Z"/>
      <path class="cls-36" d="M1277.5,119.68c.75,0,1.53.07,2.21.37,1.21.54,1.79,1.73,1.79,3.02,0,2.42-1.63,3.51-3.92,3.3v3.27h-2.69v-9.97h2.6ZM1277.72,124.15c.66,0,1.06-.48,1.06-1.12s-.36-1.17-1.02-1.17h-.18v2.29h.13Z"/>
      <path class="cls-36" d="M1285.98,129.65c.03-.39.06-.79.09-1.18-.37.75-.9,1.33-1.79,1.33-1.76,0-2.12-2.33-2.12-3.68s.4-3.6,2.18-3.6c.84,0,1.35.55,1.67,1.26-.03-.37-.03-.73-.07-1.11h2.65v6.98h-2.6ZM1285.41,124.66c-.67,0-.66,1.29-.66,1.75,0,.39.03,1.26.58,1.26.69,0,.61-1.35.61-1.81,0-.37-.01-1.2-.54-1.2Z"/>
      <path class="cls-36" d="M1293.33,129.65v-3.69c0-.3.01-.85-.4-.85-.51,0-.55.66-.55,1.03v3.51h-2.59v-6.98h2.59c-.02.45-.03.88-.06,1.33.34-.81.9-1.48,1.84-1.48,1.35,0,1.78,1.23,1.78,2.38v4.76h-2.6Z"/>
      <path class="cls-36" d="M1300.72,129.65v-.3c0-.21.03-.43.04-.64-.39.61-.81,1.09-1.58,1.09-1.84,0-2.24-2.14-2.24-3.57s.34-3.71,2.21-3.71c.84,0,1.29.46,1.66,1.17-.01-.37-.04-.75-.04-1.12v-3.81h2.6v10.9h-2.65ZM1300.25,124.67c-.6,0-.64,1.06-.64,1.48s.04,1.42.64,1.42.6-1.08.6-1.48-.03-1.42-.6-1.42Z"/>
      <path class="cls-36" d="M1308.2,129.65c.03-.39.06-.79.09-1.18-.37.75-.9,1.33-1.79,1.33-1.76,0-2.12-2.33-2.12-3.68s.4-3.6,2.18-3.6c.84,0,1.35.55,1.67,1.26-.03-.37-.03-.73-.08-1.11h2.65v6.98h-2.6ZM1307.63,124.66c-.67,0-.66,1.29-.66,1.75,0,.39.03,1.26.58,1.26.69,0,.61-1.35.61-1.81,0-.37-.02-1.2-.54-1.2Z"/>
      <path class="cls-36" d="M1276.63,137.68v7.58h-2.69v-7.58h-1.48v-2.39h5.65v2.39h-1.48Z"/>
      <path class="cls-36" d="M1283.11,141.02c-.22-.13-.45-.22-.72-.22-.31,0-.63.15-.82.4-.25.33-.27.69-.27,1.08v2.99h-2.59v-6.98h2.59l-.13,1.36c.36-.9.93-1.5,1.94-1.53v2.9Z"/>
      <path class="cls-36" d="M1290.12,142.57c0,.94-.21,1.63-1,2.2-.61.43-1.38.64-2.12.64s-1.51-.21-2.12-.64c-.79-.57-1.02-1.26-1.02-2.2v-4.29h2.59v4.1c0,.42.03.87.55.87.58,0,.54-.61.54-1.03v-3.93h2.59v4.29Z"/>
      <path class="cls-36" d="M1294.21,140.38v4.89h-2.59v-4.89h-.75v-2.09h.75c0-.33-.02-.67-.02-1.06,0-.55.03-1.12.22-1.65.33-.87,1.18-1.38,2.09-1.38.4,0,.81.08,1.21.18v2.41c-.15-.13-.31-.25-.52-.25-.4,0-.4.42-.4.72v1.03h.93v2.09h-.93Z"/>
      <path class="cls-36" d="M1298.71,140.38v4.89h-2.59v-4.89h-.75v-2.09h.75c0-.33-.02-.67-.02-1.06,0-.55.03-1.12.22-1.65.33-.87,1.18-1.38,2.09-1.38.4,0,.81.08,1.21.18v2.41c-.15-.13-.31-.25-.52-.25-.4,0-.4.42-.4.72v1.03h.93v2.09h-.93Z"/>
      <path class="cls-36" d="M1300.33,145.27v-10.9h2.59v10.9h-2.59Z"/>
      <path class="cls-36" d="M1310.21,142.92c-.36,1.63-1.48,2.5-3.11,2.5-2.14,0-3.19-1.5-3.19-3.51s1.14-3.75,3.26-3.75,3.14,1.75,3.14,3.69c0,.16-.01.31-.01.48h-3.8c0,.39.06,1.08.6,1.08.3,0,.52-.21.58-.49l2.53.02ZM1307.75,140.93c-.01-.37-.15-.88-.61-.88s-.58.51-.6.88h1.21Z"/>
      <path class="cls-36" d="M1315.35,140.6c-.27-.27-.66-.61-1.06-.61-.19,0-.4.1-.4.33,0,.84,2.47.54,2.47,2.65,0,1.58-1.35,2.45-2.81,2.45-.97,0-1.64-.28-2.48-.73l.94-1.93c.31.33.82.73,1.3.73.22,0,.51-.1.51-.37,0-.72-2.51-.52-2.51-2.59,0-1.56,1.47-2.39,2.87-2.39.75,0,1.42.24,2.08.57l-.9,1.9Z"/>
    </g>
    <g>
      <path class="cls-36" d="M1005.89,142.41v-4.65h-.66v-1.43h2.3v6.08h-1.64Z"/>
      <path class="cls-36" d="M1009.41,138.54c0-.07,0-.15,0-.22,0-1.19.81-2.1,2.02-2.1s1.95.84,1.95,1.99-.78,2.1-1.59,2.85c.5-.04,1.01-.04,1.51-.05v1.39h-4.17l1.66-2.21c.43-.57.99-1.33.99-2.08,0-.24-.1-.55-.38-.55-.36,0-.39.49-.39.75,0,.07,0,.15,0,.22h-1.59Z"/>
      <path class="cls-36" d="M1019.57,142.3c-.36.15-.58.22-.97.22-1.75,0-2.5-1.58-2.5-3.12,0-1.67.86-3.17,2.69-3.17.33,0,.51.03.81.16v1.73c-.22-.23-.43-.36-.76-.36-.87,0-1.07.93-1.07,1.62s.2,1.57,1.04,1.57c.36,0,.6-.16.86-.39l-.1,1.76Z"/>
      <path class="cls-36" d="M1022.49,142.52c-.65,0-1.25-.32-1.66-.81-.53-.64-.68-1.59-.68-2.4,0-1.43.67-3.09,2.33-3.09s2.29,1.68,2.29,3.09-.57,3.21-2.28,3.21ZM1022.47,137.76c-.56,0-.62,1.22-.62,1.61s.04,1.61.6,1.61.61-1.21.61-1.6-.03-1.62-.59-1.62Z"/>
      <path class="cls-36" d="M1029.59,140.63c0,.61-.14,1.01-.61,1.41-.39.34-.87.47-1.38.47-.56,0-1.12-.15-1.54-.53-.47-.42-.59-.97-.59-1.58v-4.07h1.64v3.93c0,.31,0,.72.42.72s.42-.41.42-.72v-3.93h1.64v4.3Z"/>
      <path class="cls-36" d="M1033.14,142.41c-.43-1.16-.9-2.3-1.24-3.5.05.65.1,1.3.1,1.95v1.55h-1.57v-6.08h1.57l.82,2.13c.19.5.35,1.02.5,1.53-.09-.75-.18-1.48-.18-2.24v-1.42h1.57v6.08h-1.57Z"/>
      <path class="cls-36" d="M1037.67,137.79v4.62h-1.64v-4.62h-.9v-1.46h3.44v1.46h-.9Z"/>
    </g>
    <g>
      <path class="cls-94" d="M1233.57,133.66c-3.84,1.61-10.73,2.68-14.5.53-.8-.46-1.12-1.3-1.07-2.19l.16-2.92c.06-1.15-.23-3.32-1.33-4.12-1.14.62-2.23,1.09-3.52,1.38-4.76,1.09-7.31,1.04-12.15.98-.94-.01-4.35-.83-5.44-1.13-3.22-.88-5.87-2.66-8.49-4.63s-4.52-4.2-5.96-7.08c-1.91-3.83-2.81-7.92-2.98-12.22-.37-9.64,3.58-13.36,2.73-22.78-.3-3.27-.86-6.47-2.39-9.35-1.74-3.28-3.2-2.63-5.35-4.12-.72-.5-1.11-1.35-1.12-2.12-.01-.93.55-1.6,1.18-2.24,1.41-1.45,2.85-2.67,4.74-3.49,6.12-2.64,13.63-1.98,19.62.76,2.64,1.21,4.83,2.84,6.79,4.94.99,1.06,1.88,2.04,2.68,3.31,3.02,4.85,4.93,10.31,5.55,16.03.07.67.06,4.16-.08,5,2.28-3.75,7.42-6.83,11.41-8.6,3.04-1.35,6.11-2.15,9.42-2.41l-1.27-2.49c.61-1.42,1.93-.92,4.49-3.02,1.92-1.57,4.3-3.92,5.41-6.17.24-.49-.08-1.35-.09-1.87-.04-1.66-.08-4.56.2-6.08.55-2.98,1.17-5.43,3.03-7.8.71-.9,1.94-1.6,3.08-1.28,3.76,1.07,7.92,5.65,9.58,9.2.1.22.22.46.3.59s.53-.04.69-.04c3.09-.08,4.57-.22,7.59.37,2.59.5,5.29,1.51,7.27,3.31l2.49-1.76c2.96-2.1,9.88-5.38,12.69-1.29.94,5.08-.48,11.21-4.06,15.25-.25,5,.99,8.66,3.64,12.78.26.4.73.89.45,1.41-.71,1.29-2.06,1.75-2.03,2.24.05.93,1.32,1.54.12,2.57-1.44,1.23-3.07,1.95-4.81,2.73-3.58,1.59-7.22,2.92-11.03,3.88-1.14.29-6.27.49-7.62.24-.26,2.01-.94,4.87-2.39,6.39,3.31,2.36,4.65,6.74,4.39,10.72-.09,1.37-.35,2.79-.99,3.97-.98,1.83-2.89,3.03-4.93,2.74-2.13-.3-3.55-1.97-4.14-3.92-.25-.84-.28-1.59.09-2.49-1.28-.25-2.47-.72-3.57-1.44l-.92,1.35c1.03,3.26.31,6.79-.98,9.78,2.51.61,4.64,2.28,5.63,4.59.31.73.55,1.82-.03,2.43-1.15,1.2-2.72,1.79-4.31,2.25-3.96,1.16-8.01,1.62-12.12,1.36-1.42-.09-4.81-.51-5.31-2.04-.22-.68-.31-1.31-.42-2ZM1268.35,90.37l-1.62-1.6c-1.06-1.04-1.69-2.27-2.06-3.7-.39-1.53.25-3.19,1.12-4.5.17-.26.34-.64.47-.97,1.81-1.98,4.55-3.12,7.24-2.69,6.12.97,10.03,6.78,9.36,12.86-.36.43-.91,1.08-1.36,1.35-3.07,1.79-5.49,2.21-8.92,1.61l-1.09-.19c.12.93.37,1.59.3,2.4l-.23,2.52c.19.34.92.14,1.3.03,3.98-1.15,7.71-2.65,11.15-4.95.21-.14.53-.54.49-.75-.04-.18-.18-.52-.28-.75l-.26-.61c-.05-.11.27-.4.38-.48l2.02-1.35c.19-.12.44-.51.5-.71.26-.75-1.62-1.42-2.78-4.78-.54-1.58-.83-2.27-1.12-3.92l-.34-1.96c-.13-.78-.08-1.69-.05-2.54.02-.63.56-1.15.94-1.59,1.8-2.12,2.77-4.69,3.39-7.35.28-1.23.56-5.18-.27-6.08-1.02-1.12-4.22-.4-5.74.23-1.96.81-4.61,2.39-6.06,3.92-.35.37-1.17.8-1.61.28-1.16-1.37-2.55-2.23-4.28-2.79-.94-.3-1.95-.66-2.92-.84l-1.48-.28c-.52-.1-1.18-.08-1.74-.13-3.23-.29-3.51.19-6.51.03-.38-.96-1.96-4.17-2.43-4.68l-2.7-2.94c-.61-.66-1.69-1.25-2.48-1.63-2.32-1.13-3.72,2.78-4.11,4.41l-.32,1.33c-.35,1.46-.44,4.64-.27,6.27.05.5.03,1.1.12,1.57.11.6.41,1.32.23,1.96-1.02,3.54-6.15,7.05-9.31,8.66-.39.2-.42.62-.2.98.57.91,1,1.67,1.51,2.64-.64.74-1.59.87-1.73,1.31-.13.41,1.88,3.05,2.27,3.51,1.33,1.55,2.75,3.01,4.32,4.32l1.83,1.54c.84.7,3.09,2.25,4.09,2.81l3.22,1.77c.13-.79.06-1.34.22-1.96.5-1.94,1.54-2.55,1.47-3.2,0-.1-.32-.03-.46-.05l-1.75-.29c-2.45-.41-4.57-1.42-6.57-2.81-.73-.51-1.24-1.08-1.8-1.77-1.35-1.66-3.05-3.51-1.39-5.68.75-.98,1.64-1.79,2.66-2.53,2.66-1.93,2.9-2.65,6.73-3.28l1.4-.23c.73-.12,1.68-.11,2.4,0l1.7.28c.58.09,1.27.39,1.88.61,1.17.41,2.11,1.21,3.07,2.05,2.99,2.63,3.84,8.05.49,11.13-1.59,1.46-6.83,2.16-8,5.86-.3.96.05,2.18.85,2.8.44.34,1.16.53,1.66.75l1.7.75c.31.14.67.27,1.03.35l1.46.34,1.62.32c.59.12,1.15.17,1.77.25l1.35.18c1.57.21,3.26.23,4.81,0,1.2-.18,1.7-1.62,1.78-2.64.14-1.92-.77-3.52-2.09-4.81ZM1184.64,59.16c-.51,0-1.05.17-1.62.29-3.01.62-5.69,2.03-8.08,4.09l2.25,1.03c1.51.69,3.66,3.08,4.42,4.66,2.19,4.53,2.92,9.7,2.13,14.68l-.3,1.91-.31,2.3c-.15,1.12-.31,2.23-.57,3.3l-.67,2.71c-.2.79-.32,1.73-.41,2.58l-.31,3.07c-.13,1.24-.09,2.58.01,3.82l.14,1.81c.16,1.99.66,3.89,1.41,5.79,1.21,3.05,3.15,5.34,5.55,7.58,2.2,2.05,5.65,3.84,8.59,4.49l1.46.32c4.89,1.08,12.7,1.34,17.1-1.39.29-.18.63-.6.94-.88,2.54.18,4.15,2.68,4.62,5.04.65,3.24-1.49,5.28.59,5.83,2.3.61,5.89.13,8.2-.42l1.18-.28c.67-.16,1.27-.39,1.92-.71-.38-1.01-.99-1.44-1.8-1.89-1.78-.97-1.72-.23-3.33-.69l1.03-2.11c.06-.12.12-.43.13-.53l1-1.89c.12-.1.3-.23.42-.27s.39.18.52.28l1.23.91.7-.68c.47.35,1.16.68,1.42,1.02l.87,1.14c.74.97,1.28,2.19,1.63,3.35.94,3.12-1.04,2.83-.13,4.67.19.39.81.74,1.43.76,3.47.12,5.75.17,9.21-.37l1.64-.26c.93-.15,3.47-.66,4.09-1.12.13-.09.12-.6,0-.74-1.01-1.2-2.68-2.02-4.21-2.45-2.58-.72-4.39.4-3.45-1.01,1.2-1.79,2.04-3.82,2.29-6l-1-3.35,1.69-.4c-.89-4.11-4.6-9.67-8.52-11.41-.54-.24-1.25-.18-1.84-.66,2.95-.5,4.47.58,6.62,2.14l3.48,3.59.53.6.97,1.57,1.15-3.04c.09-.23.12-.56.12-.78,1.29,1.71,4.54,3.62,6.78,3.55,1,.42,1.75,1.85,1.29,2.87-.23.5-.52,1.02-.51,1.51,0,.37.43.97.85,1.23.9.55,1.94-.19,2.5-1.02,1.83-2.71,1.14-7.12-.79-9.37-1.42-1.65-6.41-5.44-4.46-6.6-.92-1.5-1.22-3.29-1.36-5.13-1.54-.58-3.01-1.14-4.53-1.86-2.5-1.2-7.45-4.05-9.49-5.78-3.03-2.58-6.62-6.23-8.51-9.75-.57-.28-1.28,0-1.84.11l-1.62.34c-3.94.82-9.56,3.4-12.37,6.43-1.32,1.43-2.38,2.64-3.38,4.35-2.58,4.4-4.5,11.2-2.9,16.2.14.45.21.8.3,1.37l1.52-.56c.82-.3,1.78-.68,2.63-.83.89-.15,1.76,1,2.2,1.65,1.89,2.81,2.24,7.66-.44,9.55-.94.66-1.82,1.24-2.91,1.57-1.91.57-3.74,1.15-5.82.56.12-.46.5-.91.68-1.33,1.45-3.4,2.12-6.98,1.87-10.69-4.18-.85-3.46-9.65-2.78-12.52l.62-2.63.82-3.07c.18-.66.3-1.31.3-1.93-.02.08.14-.2.14-.29v-6.3c0-.11-.17-.38-.14-.31,0-.74-.11-1.49-.26-2.28l-.35-1.75c-.78-3.93-2.44-7.64-4.94-10.76l-.75-.93c-.36-.44-.81-.89-1.23-1.32l-1.21.28c.71.69,1.25,1.24,1.71,1.96l.7,1.11c.21.34.42,1.45-.08,1.46-2.21.03-4.2.21-6.28.83-3.75,1.12-7.28,2.42-10.17,4.75-.11.09-.49.15-.51.08-.02-.1-.05-.31-.09-.46l-1.14-4.71c3.19-2.84,9.18-5.99,13.35-6.62l1.95-.29c-1.28-1-3.61-2.54-4.96-3.05-1.84-.69-3.72-1.57-5.65-1.57.04,0-.27-.14-.38-.14h-4.07c-.09,0-.4.14-.36.14ZM1257.99,81.98c.47-.04,1.06-.19,1.13-.6.05-.29-.06-1.01-.34-1.19-1.78-1.11-3.61-1.95-5.62-2.71-.2-.08-.71.09-.88.21-1.11.82,1.04,1.97,1.69,2.4-.48,1.26-.57,3.85,1,4.35,1.59.51,2.54-1.2,3.03-2.46ZM1272.91,83.89c.73-.12,1.8-.41,1.63-1.21-.06-.28-.45-.56-.78-.59-1.33-.14-5.6-.43-6.12.96-.26.71.93.84.79,1.21l-.21.61c-.35,1,0,2.08.94,2.47.87.37,1.83.08,2.42-.84.92-1.43.56-2.5,1.33-2.62Z"/>
      <path class="cls-83" d="M1184.64,59.16h4.82c1.93,0,3.81.88,5.65,1.57,1.35.51,3.69,2.05,4.96,3.05l-1.95.29c-4.18.63-10.16,3.78-13.35,6.62l1.14,4.71c.04.15.07.36.09.46.01.07.4.01.51-.08,2.89-2.32,6.42-3.63,10.17-4.75,2.08-.62,4.07-.8,6.28-.83.5-.02.29-1.13.08-1.46l-.7-1.11c-.46-.73-1-1.27-1.71-1.96l1.21-.28c.42.43.87.87,1.23,1.32l.75.93c2.51,3.12,4.16,6.83,4.94,10.76l.35,1.75c.16.79.26,1.54.26,2.28v6.9c0,.62-.12,1.27-.3,1.93l-.82,3.07-.62,2.63c-.68,2.88-1.4,11.67,2.78,12.52.25,3.72-.42,7.29-1.87,10.69-.18.43-.55.87-.68,1.33,2.08.59,3.92.01,5.82-.56,1.09-.33,1.97-.9,2.91-1.57,2.68-1.88,2.33-6.74.44-9.55-.44-.65-1.31-1.8-2.2-1.65s-1.81.52-2.63.83l-1.52.56c-.09-.57-.16-.93-.3-1.37-1.6-4.99.32-11.8,2.9-16.2,1-1.7,2.06-2.92,3.38-4.35,2.81-3.03,8.44-5.61,12.37-6.43l1.62-.34c.56-.12,1.27-.39,1.84-.11,1.89,3.52,5.48,7.17,8.51,9.75,2.03,1.73,6.98,4.58,9.49,5.78,1.52.73,2.99,1.28,4.53,1.86.14,1.84.45,3.64,1.36,5.13-1.95,1.17,3.04,4.95,4.46,6.6,1.93,2.25,2.62,6.66.79,9.37-.55.82-1.6,1.57-2.5,1.02-.42-.26-.85-.86-.85-1.23,0-.49.29-1.01.51-1.51.46-1.02-.29-2.44-1.29-2.87-2.24.07-5.49-1.84-6.78-3.55-1.67-2.21-3.26-5.75-3.26-8.6-1.97-.11-1.5-.55-2.96-1.22l.83,2.77c.37,1.23.53,3.84-.09,4.85-.11.18-.58.28-.76.26-2.15-1.56-3.67-2.64-6.62-2.14.59.47,1.3.42,1.84.66,3.92,1.74,7.62,7.3,8.52,11.41l-1.69.4,1,3.35c-.25,2.18-1.09,4.21-2.29,6-.94,1.41.87.28,3.45,1.01,1.53.43,3.2,1.25,4.21,2.45.12.14.12.64,0,.74-.62.46-3.16.98-4.09,1.12l-1.64.26c-3.46.54-5.74.49-9.21.37-.63-.02-1.24-.37-1.43-.76-.91-1.84,1.07-1.55.13-4.67-.35-1.17-.89-2.39-1.63-3.35l-.87-1.14c-.26-.33-.94-.66-1.42-1.02l-.7.68-1.23-.91c-.13-.09-.39-.32-.52-.28s-.3.17-.42.27c-.06-.25-.43-.63-.75-.72l-6.67-1.97-.5-.15c-.14-.04-.43.3-.41.42,1.57,1.43,2.22,3.06,2.73,5.02.25.94.15,1.67-.21,2.82,1.65-.13,3.67-2.47,4.81-3.54-.01.1-.08.41-.13.53l-1.03,2.11c1.61.46,1.55-.28,3.33.69.81.44,1.42.88,1.8,1.89-.65.32-1.25.55-1.92.71l-1.18.28c-2.31.55-5.9,1.02-8.2.42-2.08-.55.06-2.6-.59-5.83-.47-2.36-2.08-4.86-4.62-5.04-.31.28-.65.7-.94.88-4.4,2.73-12.21,2.47-17.1,1.39l-1.46-.32c-2.94-.65-6.38-2.44-8.59-4.49-2.4-2.24-4.35-4.53-5.55-7.58-.75-1.89-1.25-3.8-1.41-5.79l-.14-1.81c-.1-1.24-.14-2.58-.01-3.82l.31-3.07c.09-.85.21-1.8.41-2.58l.67-2.71c.27-1.07.42-2.17.57-3.3l.31-2.3.3-1.91c.79-4.98.06-10.15-2.13-14.68-.77-1.59-2.91-3.97-4.42-4.66l-2.25-1.03c2.39-2.06,5.07-3.46,8.08-4.09.57-.12,1.11-.29,1.62-.29ZM1198.12,85.79h5.46c1.39-.01,2.75.5,4.09,1.15.95-2.73-.03-6.03-.65-8.88-5.61-2.18-16.4.78-20.89,4.63l-.84,7.13c.3.3.73,0,1.03-.27,2.64-2.42,8.25-3.53,11.81-3.76ZM1197.16,92.41l-1.41.2-2.06.35c-.62.1-1.27.3-1.88.49-2.98.94-6.18,2.25-8.09,4.71-.6,2.42-.55,7.18.73,9,.06.09.33-.2.41-.31.8-1.06,2.24-2.27,3.4-3.02,3.15-2.07,6.75-3.34,10.53-3.83,1.29-.17,2.67-.22,3.94,0l2.52.44,1.28-6.5c-.6-.71-4.79-1.54-5.2-1.54.04-.02-.25-.2-.35-.2h-3.45c-.09,0-.44.2-.37.19ZM1200.54,114.38l.97-1.15c1.2-1.42,2.6-2.68,4.24-3.56l.63-.34c.15-.08.11-.6.06-.76l-1.1-3.65c-.22-.72-.94-.99-1.63-.86-5.01.95-9.26,3.87-12.5,7.7-.66.79-2.46,3.35-2.17,4.24.09.27.53.53.79.71,1.27.85,6.25,4.21,7.59,3.74-.04-1.76,2.06-4.82,3.11-6.06Z"/>
      <path class="cls-83" d="M1268.35,90.37c1.32,1.29,2.23,2.89,2.09,4.81-.08,1.03-.58,2.46-1.78,2.64-1.55.24-3.25.21-4.81,0l-1.35-.18c-.62-.08-1.18-.13-1.77-.25l-1.62-.32-1.46-.34c-.35-.08-.72-.21-1.03-.35l-1.7-.75c-.5-.22-1.21-.41-1.66-.75-.81-.61-1.16-1.84-.85-2.8,1.17-3.7,6.41-4.4,8-5.86,3.34-3.08,2.5-8.5-.49-11.13-.96-.85-1.9-1.64-3.07-2.05-.61-.22-1.3-.51-1.88-.61l-1.7-.28c-.73-.12-1.68-.13-2.4,0l-1.4.23c-3.83.64-4.08,1.35-6.73,3.28-1.02.74-1.91,1.55-2.66,2.53-1.67,2.18.04,4.03,1.39,5.68.56.68,1.07,1.26,1.8,1.77,2,1.39,4.12,2.41,6.57,2.81l1.75.29c.14.02.45-.05.46.05.06.65-.97,1.26-1.47,3.2-.16.62-.09,1.17-.22,1.96l-3.22-1.77c-1-.55-3.26-2.1-4.09-2.81l-1.83-1.54c-1.56-1.32-2.98-2.78-4.32-4.32-.4-.46-2.4-3.11-2.27-3.51.14-.44,1.09-.57,1.73-1.31-.52-.97-.95-1.72-1.51-2.64-.22-.36-.19-.78.2-.98,3.15-1.61,8.29-5.12,9.31-8.66.19-.65-.11-1.36-.23-1.96-.09-.48-.07-1.07-.12-1.57-.17-1.63-.08-4.81.27-6.27l.32-1.33c.39-1.62,1.79-5.54,4.11-4.41.79.39,1.88.97,2.48,1.63l2.7,2.94c.48.52,2.05,3.72,2.43,4.68,3,.15,3.28-.33,6.51-.03.56.05,1.22.03,1.74.13l1.48.28c.97.18,1.98.54,2.92.84,1.73.56,3.12,1.42,4.28,2.79.44.52,1.26.08,1.61-.28,1.45-1.53,4.1-3.11,6.06-3.92,1.52-.63,4.71-1.35,5.74-.23.83.91.56,4.85.27,6.08-.62,2.66-1.59,5.23-3.39,7.35-.38.44-.92.96-.94,1.59-.03.85-.08,1.76.05,2.54l.34,1.96c.28,1.65.58,2.34,1.12,3.92,1.15,3.36,3.04,4.04,2.78,4.78-.07.2-.32.58-.5.71l-2.02,1.35c-.11.07-.43.36-.38.48l.26.61c.1.23.24.57.28.75.05.21-.27.6-.49.75-3.44,2.3-7.17,3.8-11.15,4.95-.38.11-1.11.32-1.3-.03l.23-2.52c.07-.82-.18-1.48-.3-2.4l1.09.19c3.43.6,5.84.17,8.92-1.61.46-.27,1-.92,1.36-1.35.67-6.08-3.24-11.89-9.36-12.86-2.7-.43-5.44.71-7.24,2.69-.13.33-.3.71-.47.97-.86,1.3-1.51,2.96-1.12,4.5.37,1.43,1,2.66,2.06,3.7l1.62,1.6ZM1246.73,64.29c1.88-1.29,3.72-2.34,5.81-2.87.28-.07,1.11-.16,1.05-.49-.3-1.69-1.26-2.95-2.19-4.34-.66-.97-1.63-1.81-2.45-2.56-.98-.11-1.58.14-1.85.98s-.61,1.8-.75,2.7l-.28,1.79c-.14.9-.34,4.25.67,4.78ZM1281.14,71.68c1.74.99,3.25-5.69,3.45-6.53l.31-1.32c.1-.45.23-1.15-.54-1.36-1.72-.48-4.32.56-5.91,1.6-.74.48-1.61,1.05-1.86,1.99l2.5,2.7c.43.46,1.69,2.27,2.05,2.92ZM1266.63,71.22c-.09-.23-.44-.58-.63-.67-.86-.37-2.34,1.99-1.49,3.75.1.2.47.5.66.53.73.12,2.19-1.74,1.46-3.61ZM1262.36,75.74c.92-.27.58-1.49.3-2.13-.42-.92-1.35-2.2-2.45-1.76-1.23.5.46,4.38,2.15,3.88ZM1267.29,76.37c1.43.44,2.91-.14,3.55-1.45.11-.22.18-.73.07-.92-.63-1.07-2.82-.23-3.63,1.01-.2.31-.18,1.05,0,1.36ZM1262.12,93.24c1.08.35,1.86,1.22,2.79,1.92.55-.46.35-1.37-.18-1.8l-1.08-.88c-.16-.13-.39-.44-.38-.63.03-.75,1.76-.39,2.49-2.01-.14-1.57-4.21-2.21-4.85-1.51s.21,2.33,1.14,3.13c-.89.54-.11-.01-1.84.34-.92.19-3.43,1-2.89,2,.68,1.25,2.24-1.39,4.8-.56Z"/>
      <path class="cls-49" d="M1250.76,111.15c0,.22-.03.55-.12.78l-1.15,3.04-.97-1.57c.05-.92-2.3-3.2-3.03-3.81-.15-.12-.24-.53-.23-.64.62-1.01.46-3.62.09-4.85l-.83-2.77c1.46.66.99,1.11,2.96,1.22,0,2.84,1.59,6.38,3.26,8.6Z"/>
      <path class="cls-49" d="M1229.91,123.66l-1,1.89c-1.14,1.07-3.16,3.41-4.81,3.54.35-1.15.45-1.88.21-2.82-.51-1.96-1.16-3.6-2.73-5.02-.01-.13.27-.47.41-.42l.5.15,6.67,1.97c.31.09.69.47.75.72Z"/>
      <path class="cls-49" d="M1257.99,81.98c-.49,1.26-1.43,2.98-3.03,2.46-1.57-.51-1.49-3.09-1-4.35-.64-.43-2.8-1.58-1.69-2.4.17-.13.68-.29.88-.21,2.01.76,3.84,1.59,5.62,2.71.29.18.4.9.34,1.19-.07.41-.66.57-1.13.6Z"/>
      <path class="cls-49" d="M1272.91,83.89c-.77.13-.41,1.19-1.33,2.62-.59.92-1.55,1.2-2.42.84-.93-.39-1.29-1.47-.94-2.47l.21-.61c.13-.37-1.06-.51-.79-1.21.52-1.39,4.79-1.1,6.12-.96.33.03.72.31.78.59.17.8-.9,1.09-1.63,1.21Z"/>
      <path class="cls-83" d="M1245.28,108.95c-.02.1.08.51.23.64.72.61,3.08,2.88,3.03,3.81l-.53-.6-3.48-3.59c.17.02.65-.08.76-.26Z"/>
      <path class="cls-83" d="M1209.38,89.33v-6.9c-.03-.07.14.2.14.31v6.3c0,.08-.16.37-.14.29Z"/>
      <path class="cls-83" d="M1189.45,59.15h-4.82s.27-.14.36-.14h4.07c.11,0,.42.14.38.14Z"/>
      <path class="cls-94" d="M1201.34,92.41c.41,0,4.61.83,5.2,1.54l-1.28,6.5-2.52-.44c-1.26-.22-2.64-.17-3.94,0-3.78.48-7.38,1.76-10.53,3.83-1.15.75-2.6,1.97-3.4,3.02-.08.11-.35.39-.41.31-1.28-1.82-1.33-6.58-.73-9,1.91-2.46,5.11-3.77,8.09-4.71.61-.19,1.26-.39,1.88-.49l2.06-.35,1.41-.2h4.17Z"/>
      <path class="cls-94" d="M1203.58,85.78s-.27-.14-.36-.14h-4.75c-.09,0-.4.15-.35.15-3.56.23-9.17,1.34-11.81,3.76-.29.27-.72.58-1.03.27l.84-7.13c4.5-3.85,15.28-6.81,20.89-4.63.63,2.85,1.61,6.15.65,8.88-1.35-.65-2.7-1.16-4.09-1.16Z"/>
      <path class="cls-94" d="M1200.54,114.38c-1.05,1.25-3.15,4.31-3.11,6.06-1.33.47-6.31-2.89-7.59-3.74-.26-.17-.7-.44-.79-.71-.29-.89,1.51-3.46,2.17-4.24,3.23-3.83,7.49-6.74,12.5-7.7.69-.13,1.41.14,1.63.86l1.1,3.65c.05.16.09.68-.06.76l-.63.34c-1.64.87-3.04,2.14-4.24,3.56l-.97,1.15Z"/>
      <path class="cls-83" d="M1203.58,85.78h-5.46s.26-.14.35-.14h4.75c.09,0,.4.14.36.14Z"/>
      <path class="cls-83" d="M1201.34,92.41h-4.17c-.07,0,.28-.19.37-.19h3.45c.1,0,.4.17.35.19Z"/>
      <path class="cls-49" d="M1246.73,64.29c-1.01-.54-.82-3.89-.67-4.78l.28-1.79c.14-.9.48-1.84.75-2.7s.88-1.09,1.85-.98c.82.75,1.79,1.59,2.45,2.56.94,1.39,1.89,2.65,2.19,4.34.06.33-.77.42-1.05.49-2.09.53-3.92,1.58-5.81,2.87Z"/>
      <path class="cls-49" d="M1281.14,71.68c-.37-.65-1.63-2.46-2.05-2.92l-2.5-2.7c.25-.94,1.11-1.51,1.86-1.99,1.59-1.03,4.19-2.07,5.91-1.6.76.21.64.91.54,1.36l-.31,1.32c-.19.84-1.71,7.52-3.45,6.53Z"/>
      <path class="cls-49" d="M1262.12,93.24c-2.56-.83-4.12,1.81-4.8.56-.54-1,1.97-1.81,2.89-2,1.73-.35.94.2,1.84-.34-.93-.8-1.79-2.42-1.14-3.13s4.71-.06,4.85,1.51c-.73,1.62-2.46,1.25-2.49,2.01,0,.18.22.5.38.63l1.08.88c.53.43.73,1.34.18,1.8-.93-.7-1.72-1.57-2.79-1.92Z"/>
      <path class="cls-49" d="M1262.36,75.74c-1.69.49-3.38-3.38-2.15-3.88,1.1-.45,2.03.84,2.45,1.76.29.63.62,1.86-.3,2.13Z"/>
      <path class="cls-49" d="M1267.29,76.37c-.18-.31-.21-1.05,0-1.36.81-1.24,3-2.08,3.63-1.01.11.19.04.7-.07.92-.65,1.31-2.12,1.89-3.55,1.45Z"/>
      <path class="cls-49" d="M1266.63,71.22c.73,1.86-.73,3.73-1.46,3.61-.19-.03-.56-.33-.66-.53-.85-1.75.63-4.12,1.49-3.75.2.08.54.44.63.67Z"/>
    </g>
    <g>
      <path class="cls-6" d="M1178.34,21.06c-1.23-1.39-4.12-1.38-6.04-1.06-1.91.32-3.82.34-5.67-.23-.61-.19-1.16-.41-1.65-.78-.4-.31-.68-.85-.38-1.29.37-.55,1.18-.66,1.79-.39l1.26.57c.73.33,1.53.46,2.35.44.74-.02,1.29-.43,1.46-1.09.12-.47.12-.95.17-1.44.05-.54.24-1.03.39-1.54.37-1.17.48-2.52-.26-3.52-.38-.51-1.04-.61-1.64-.32-1.31.62-1.81,2.29-4.62,3.46-1.07.45-2.14.8-3.25,1.17-.8.27-1.56.36-2.41.2-1.08-.21-1.54.67-1.86,1.55-.37.99-.46,2.02-.16,3.03.33,1.09,1.21,1.84,2.44,2.06,1.44.26,2.92.3,4.39.07,1.43-.23,2.81-.24,4.21.12,1.06.28,1.83,1.1,1.88,2.13.01.28-.13.47-.44.53-.65.13-1.34.1-2.01-.03l-3.13-.64c-2.62-.53-6.66.13-8.13,2.3-.6.88-.68,1.89-.35,2.9.52,1.57,1.26,3.04,2.11,4.48.8,1.38,1.74,2.83,1.46,4.49l-.33,1.94-.44,2.03c-.35,1.6.36,3.28,1.81,4.24.91.6,2.05.78,3.14.62.98-.14,1.61-.92,1.58-1.82-.02-.55-.15-1.06-.39-1.56l-.91-1.81c-.42-.85-.8-1.64-1.03-2.53-.3-1.15-.47-2.29-.59-3.48-.14-1.46.03-3.35,1.15-4.37.78-.71,1.87-1.11,2.93-1.25.72-.09,1.25.23,1.5.82.5,1.14.94,1.33,2.33,1.55,1.13.18,2.18-.24,2.84-1.1.92-1.2,1.05-2.14,2.74-3.6.79-.68,1.48-1.36,2.06-2.19,1-1.45.93-3.32-.26-4.66Z"/>
      <path class="cls-6" d="M1196.34,10.58c-.37-.89-1.46-1.52-2.45-1.46-.35.02-.64.12-1.28.48-.69.38-1.64.97-2.69,1.86-.88.54-3.17,1.78-6.01,1.51-1.17-.11-2.02-.2-2.77-.8-.84-.67-1.58-2.03-2.46-2.57-.38-.23-.79-.32-.79-.32s-.38-.08-.77-.04c-1.29.13-2.75,2.7-3.32,3.7-.25.44-.39.72-.52,1.03-.31.77-.56,1.55-.47,2.39.13,1.16,1.66,1.75,3,1.65,1.28-.1,2.5-.31,3.76-.47.72-.09,1.41-.1,2.09.08.78.2.64,1.06.27,1.82l-1.99,4.1c-.72,1.49-1.21,2.99-1.41,4.62-.09.76-.18,1.49-.03,2.25.35,1.82,1.45,1.86,1.89,2.54.42.65.4,1.42.18,2.14-.28.91-.51,1.81-.47,2.76.04.99.81,1.74,1.9,1.79.61.03,1.27-.14,1.74-.5.86-.67.41-1.98.05-2.93-.25-.65-.5-1.26-.67-1.94-.44-1.73,1.18-3.01,1.72-2.58.5.39.15,1.09-.12,1.84-.18.5.14.88.63,1.07.57.21,1.2.25,1.68-.15.68-.57.54-1.41.08-2.17-.63-1.06-.22-2.06.46-3.06.33-.48.5-1,.51-1.57,0-.9-.19-1.75-.53-2.59l-.82-1.99c-.5-1.22-.93-2.42-.53-3.67.21-.67.38-1.33.5-2.01.08-.47.38-.79.87-.94,1.39-.43,2.88.14,4.88-.1.36-.04.68-.12.98-.26.33-.15.55-.32.67-.41,1.66-1.32,2.16-3.29,2.16-3.29.21-.81.32-1.25.1-1.79Z"/>
      <path class="cls-6" d="M1218.45,29.28c.37-1.51-.13-3.11.17-5.06.08-.5.55-.79,1.06-.76,1.57.07,2.23,1.05,2.46,2.4l.34,1.92c.08.48.27.93.58,1.31.39.48,1.04.64,1.63.38l1.6-.69,1.58-.65c1.26-.52,1.23-1.84.68-3-1.11-2.36-4.11-1.78-5.75-2.56-.43-.2-.54-.61-.32-.99.46-.79,1.68-1.16,2.57-1.53l1.2-.49c.96-.4,1.95-.69,2.84-1.23.9-.54.47-2.93-1.55-3.95-.73-.37-1.6-.28-2.22.18l-.84.63c-.9.76-1.7,1.56-2.5,2.42-.69.74-2.77,2.95-3.39,2.48-.24-.18-.08-.85.12-1.34.56-1.37,1.7-2.38,2.25-3.99.39-1.13.43-2.29.03-3.41-.24-.68-.92-1.17-1.74-1.12-1.62.1-3.18.52-4.63,1.18-.81.37-1.25,1.06-1.24,1.89l.02,1.22c0,.38-.28.68-.55.83-.36.2-.77.24-1.12.08l-1.31-.58c-1.55-.56-3.17-.84-4.85-.92-1.9-.09-3.68.31-5.3,1.22-.96.54-1.76,1.19-2.61,1.87-2.1,1.66-4.8,2.12-7.49,2.45-.9.11-1.45.89-1.41,1.69.03.62.13,1.18.31,1.77l.76,2.42c.4,1.26-.45,2.13-.78,3.35-.23.86-.1,1.77.5,2.46.85.97,2.11,1.38,3.45,1.25.85-.08,1.64-.4,2.09-1.09.23-.35.26-.81.24-1.23-.07-1.84-1.08-3.06-1.65-4.78-.23-.72,0-1.45.68-1.87.47-.29.82-.67,1.04-1.15l.75-1.6c.21-.46.65-.98.95-.86.05.02.11.1.12.19.17,1.15-.22,2.22-.89,3.19l-.88,1.28c-.34.65-.3,1.34.15,1.92.68.87,1.34,1.59,2.42,1.98.62.23.9.77.82,1.39-.06.42-.15.85-.04,1.28.25,1,.71,1.41.15,2.46-.34.64-.3,1.62-1.08,1.69-.92.08-1.85.05-2.63.46.11.2.2.42.25.66l.41,2.03c.3,1.19,1.24,2.02,2.55,2.21.63.09,1.24.27,1.74.63.9.63,1.48,1.51,1.78,2.51.25.84.39,1.68.39,2.56v2.49c0,1.2.28,2.34.9,3.39.98,1.66,3.2,2.49,4.98,1.29.71-.48,1.16-1.18,1.41-1.96.44-1.37-.26-2.25-1.14-3.29l-1.38-1.63c-.59-.89-1.07-1.8-1.4-2.79-.27-.82.29-1.37,1.18-1.63.49-.14.88-.39,1.32-.61.37-.19.77-.3,1.1-.56.66-.51,1.07-1.29,1.15-2.08.13-1.29-.53-2.27-1.15-3.36-.54-.94-.97-1.79-2.01-2.37-.79-.44-1.63-.61-2.54-.65-1.32-.07-.72-.46.13-.98.78-.47,1.1-1.22,1.89-1.69.96-.57,1.84-1.17,2.63-1.94.75-.72,1.49-1.4,2.05-2.28.66-1.03.65-2.2-.1-3.12-.36-.43-.98-.61-1.53-.33l-3.13,1.58-2,.96c-.8.39-1.6.22-2.36-.18-1.07-.57-1.67-1.58-1.36-2.73.24-.87.78-1.66,1.58-2.17,1.07-.68,2.13-.19,3.14.4l1.57.92c.58.34,1.25.5,1.95.52,1.37.05,2.12-.92,2.76-1.88l.73-1.11c.27-.41.92-.61,1.41-.36.23.11.34.42.39.65.45,2.14.03,4.3-1.14,6.18l-1.29,2.08c-.27.44-.49.99-.54,1.53.13.09.25.21.34.38.52.99,1.67,1.04,2.7,1.38.24.08.42.21.55.36.73-.05,1.45-.15,2.14-.34.61-.17,1-.53,1.13-1.09ZM1203.89,36.36c.31-.48.98-.58,1.43-.2l1.38,1.14c.28.23.5.64.32.97-.14.26-.52.34-.85.39l-1.76.26c-.24.04-.38-.09-.44-.27l-.31-.94c-.15-.47-.05-.95.22-1.37Z"/>
      <path class="cls-6" d="M1248.88,16.65c-.13-.74-.72-1.27-1.55-1.4-1.98-.32-4.46-.16-6.07,1.02-.69.51-1.05,1.22-1.29,2-.34,1.11-.63,2.19-1.14,3.24-.38.78-1.01,1.41-1.9,1.63-.67.17-1.41,0-1.79-.54-.39-.55-.34-1.21-.08-1.8.66-1.53,2.19-2.23,3.42-3.66,1.12-1.31,1.11-3.14-.45-4.05-.74-.43-1.54-.58-2.42-.65-1.39-.1-2.61.63-3.02,1.87-.32.97-.32,1.95-.16,2.97.25,1.56-.04,2.25-1.38,3.25-1.11.83-1.8,2.03-1.71,3.35.06.84.63,1.48,1.5,1.69l1.46.19c.81.1,2.01.08,2.15.64.14.56-.9.95-1.66,1.17-1.51.45-2.85,1.21-3.86,2.31-1.64,1.78-.78,3.51-.29,5.41l.35,1.35c.09.34.05.71-.1,1.02-.14.3-.47.37-.77.22-.63-.32-.96-1.01-.74-1.65l.31-.89c.23-.65-.17-1.39-.9-1.61-.72-.21-1.47-.29-2.21-.26-.73.03-1.26.48-1.4,1.13-.08.41,0,.81.05,1.23l.27,2.08c0,.54-.24,1.05-.77,1.25-.78.31-1.23-.72-1.26-1.68-.04-1.39.21-2.7.49-4.06.18-.9.27-1.81.05-2.67-.19-.74-.77-1.25-1.49-1.36,0,.02,0,.05,0,.07-.18-.06-.37-.09-.56-.07-.65.07-1.13.65-1.26,1.24-.13.59.02,1.2.15,1.8.69,3.08,1.01,6.33.95,9.47-.1.45.03,1.11-.53,1.06-.36-.03-.7-.3-.85-.58-.2-.37-.3-.8-.34-1.21-.14-1.55.03-3.04.24-4.58.14-1.02.17-2.04-.14-2.99-.35-1.09-1.46-1.67-2.63-1.35-.61.17-1.1.53-1.48,1-.96,1.17-1.39,2.58-1.48,4.05l-.16,2.51c-.07,1.17-.55,2.2-1.24,3.17l-1.69,2.38c-.82,1.16-.78,2.79.65,3.39,1.63.69,3.86.97,4.44-.72.28-.79.12-1.61-.09-2.42l-.47-1.79c-.08-.72.26-1.42.98-1.69.51-.19,1.02,0,1.24.46.98,2.12.06,3.69.18,5.04.09.93.49,1.77,1.24,2.37,1.32,1.05,2.77.24,3.89-.87l.6-.59c.67-.67.83-1.62.38-2.43l-.06-.11c-.07-.04-.13-.09-.19-.15,1.57-1.05,3.76-1.9,2.87-3.74l-.56-1.17c-.23-.47-.47-1.01-.1-1.27.41-.28,1.46.25,1.85.99.21.4.12.83.03,1.25-.12.52-.03,1.11.46,1.43.6.4,1.4.46,2.09.27.96-.27,1.23-1.24,1.33-2.19.11-1.1.51-2.07,1.17-2.99l1.18-1.63c.38-.52.68-1.05.75-1.67l.37-3.03c.16-1.32.89-2.48,2.11-3.17.38-.21.79-.33,1.23-.29,2.08.19,2.73-1.91,4.53-3.32.64-.5,1.49-.4,1.97.21.3.37.37.84.12,1.27l-.54.93c-.3.52-.51,1.04-.46,1.66.06.72-1.45.75-2.37.57l-1.79-.35c-1.24-.25-2.2.48-2.9,1.42-.85,1.14-1.33,2.5-1.32,3.88.01.97.62,1.67,1.47,2.13.87.47,1.75.67,2.78.63l1.67-.07c.34-.02.64.15.83.39.52.67.54,1.66-.16,2.02-.3.16-.62.12-.96.03-1.67-.48-3.11-1.62-4.42-1.7-.96-.06-1.96.09-2.81.46-.87.38-1.26,1.14-1.17,1.98.11.98.58,1.29-.69,2.16-.85.58-.86,1.26-.74,2.19.04.32.14.6.42.81.26.19.41.47.36.78l-.18,1.19c-.1.65.26,1.54.89,1.56.4.01.67-.45.87-.88.11-.24.27-.32.53-.35.92-.1,1.24-1.32.87-2.36-.19-.53-.1-1.03.32-1.44l1.01-.99.91-.14c.47-.07,1.39.39,2.55.33.53-.03,1.06-.05,1.59.03.67.1,1.12.96,2.38.96,1.93,0,3.42-.72,4.12-2.4.4-.96.63-1.93.72-2.96.12-1.38-1.19-2.21-2.54-2.66l-3.69-1.21c-.99-.33-2.42-1.09-2.58-1.93-.05-.28.33-.51.58-.61.89-.35,1.87-.02,2.45.67.8.95,2.48,1.5,3.74,1.47.97-.03,1.77-.64,2.14-1.44.32-.69.36-1.41.2-2.14-.19-.86-.49-1.67-.87-2.48-.88-1.87-.77-4.27-.01-6.17l1.12-2.24.71-1.51c.27-.76.36-1.53.22-2.33ZM1215.77,37.75c-.17.21-.6-.03-1.22.13-.23.06-.44-.05-.5-.26-.11-.38-.03-.73.13-1.08.28-.6.84-1.65,1.14-1.56.07.02.17.13.19.24l.36,2.26c.02.1-.05.21-.09.26Z"/>
    </g>
    <g>
      <path class="cls-36" d="M1009.42,149.62v1.23h-1.64v-1.23h-2.2v-1.28l1.83-3.56h2.01v3.53h.52v1.31h-.52ZM1007.84,148.31c0-.61.02-1.21.06-1.82-.29.62-.59,1.25-.96,1.82h.9Z"/>
      <path class="cls-36" d="M1014.91,150.96c-.65,0-1.25-.32-1.66-.81-.53-.64-.68-1.59-.68-2.4,0-1.43.67-3.09,2.33-3.09s2.29,1.68,2.29,3.09-.57,3.21-2.28,3.21ZM1014.9,146.19c-.57,0-.62,1.22-.62,1.61s.04,1.61.6,1.61.61-1.21.61-1.6-.03-1.62-.59-1.62Z"/>
      <path class="cls-36" d="M1022,144.95c-.68,1.51-1.34,3.03-2.08,4.52.63-.05,1.25-.05,1.88-.07v1.46h-4.18v-.13l1.3-2.97c.24-.54.5-1.06.82-1.55h-1.77v-1.43h4.03v.17Z"/>
    </g>
    <g>
      <rect class="cls-40" x="1295.84" y="21.3" width="75.5" height="53.52"/>
      <path class="cls-65" d="M1297.68,21.86c1.86,0,2.78,1.28,2.78,3.04,0,.65-.1,1.3-.42,1.87-.5.9-1.26,1.17-2.24,1.17h-1.53v-6.08h1.41ZM1297.91,26.47c.77-.03.88-.93.88-1.52s-.12-1.57-.88-1.57v3.09Z"/>
      <path class="cls-65" d="M1303.31,27.93c.02-.24.04-.48.05-.72-.23.46-.55.81-1.09.81-1.07,0-1.29-1.42-1.29-2.24s.25-2.2,1.33-2.2c.51,0,.82.34,1.02.77-.02-.23-.02-.45-.05-.67h1.61v4.25h-1.58ZM1302.96,24.89c-.41,0-.4.78-.4,1.07,0,.24.02.77.36.77.42,0,.37-.82.37-1.1,0-.23,0-.73-.33-.73Z"/>
      <path class="cls-65" d="M1308.3,25.35c-.14-.08-.27-.14-.44-.14-.19,0-.38.09-.5.25-.16.2-.16.42-.16.66v1.82h-1.58v-4.25h1.58l-.08.83c.22-.55.56-.91,1.18-.93v1.77Z"/>
      <path class="cls-65" d="M1311.08,27.93c-.26-.71-.56-1.3-.76-2.04v2.04h-1.58v-6.64h1.58v4.24c.2-.66.49-1.22.76-1.86h1.7l-1.05,1.96,1.16,2.3h-1.81Z"/>
      <path class="cls-65" d="M1317.6,28c-.15.02-.28.03-.43.03-1.25,0-1.9-1.1-1.9-2.24s.78-2.2,2.01-2.2c.11,0,.21,0,.32.02v1.38c-.46.03-.7.31-.7.77,0,.34.2.79.59.79h.11v1.45Z"/>
      <path class="cls-65" d="M1320.3,27.93v-2.25c0-.18,0-.52-.25-.52-.31,0-.34.4-.34.63v2.14h-1.58v-6.64h1.58v2.38c0,.27-.02.55-.04.82.21-.49.55-.9,1.12-.9.82,0,1.08.75,1.08,1.45v2.9h-1.58Z"/>
      <path class="cls-65" d="M1324.44,28.03c-1.3,0-1.95-.99-1.95-2.2s.67-2.23,1.96-2.23,2,1,2,2.26-.69,2.18-2,2.18ZM1324.46,24.78c-.38,0-.44.76-.44,1.03s.05,1.02.45,1.02.45-.75.45-1.02-.06-1.03-.46-1.03Z"/>
      <path class="cls-65" d="M1329.26,28c-.15.02-.28.03-.43.03-1.25,0-1.9-1.1-1.9-2.24s.78-2.2,2.01-2.2c.11,0,.21,0,.32.02v1.38c-.46.03-.7.31-.7.77,0,.34.2.79.59.79h.11v1.45Z"/>
      <path class="cls-65" d="M1331.64,28.03c-1.3,0-1.95-.99-1.95-2.2s.67-2.23,1.96-2.23,2,1,2,2.26-.69,2.18-2,2.18ZM1331.65,24.78c-.38,0-.44.76-.44,1.03s.05,1.02.45,1.02.45-.75.45-1.02-.06-1.03-.46-1.03Z"/>
      <path class="cls-65" d="M1334.24,27.93v-6.64h1.58v6.64h-1.58Z"/>
      <path class="cls-65" d="M1338.76,27.93c.02-.24.04-.48.05-.72-.23.46-.55.81-1.09.81-1.07,0-1.29-1.42-1.29-2.24s.25-2.2,1.33-2.2c.51,0,.82.34,1.02.77-.02-.23-.02-.45-.05-.67h1.61v4.25h-1.58ZM1338.41,24.89c-.41,0-.4.78-.4,1.07,0,.24.02.77.36.77.42,0,.37-.82.37-1.1,0-.23,0-.73-.33-.73Z"/>
      <path class="cls-65" d="M1342.86,24.96v2.98h-1.58v-2.98h-.46v-1.27h.46v-1.25h1.58v1.25h.52v1.27h-.52Z"/>
      <path class="cls-65" d="M1347.53,26.5c-.22.99-.9,1.52-1.89,1.52-1.3,0-1.94-.91-1.94-2.14s.69-2.29,1.99-2.29,1.91,1.07,1.91,2.25c0,.1,0,.19,0,.29h-2.31c0,.24.04.66.36.66.18,0,.32-.13.36-.3h1.54ZM1346.02,25.29c0-.23-.09-.54-.37-.54s-.35.31-.36.54h.74Z"/>
      <path class="cls-65" d="M1349.16,29.4h-1.29l.75-2.92h1.61l-1.07,2.92Z"/>
      <path class="cls-65" d="M1298.42,38.93c-.15.02-.28.03-.43.03-1.25,0-1.9-1.1-1.9-2.24s.78-2.2,2.01-2.2c.11,0,.21,0,.32.02v1.38c-.46.03-.7.31-.7.77,0,.34.2.79.59.79h.11v1.45Z"/>
      <path class="cls-65" d="M1301.12,38.86v-2.25c0-.18,0-.52-.25-.52-.31,0-.34.4-.34.63v2.14h-1.58v-6.64h1.58v2.38c0,.27-.02.55-.04.82.21-.49.55-.9,1.12-.9.82,0,1.08.75,1.08,1.45v2.9h-1.58Z"/>
      <path class="cls-65" d="M1304.23,34.21c-.51,0-.92-.43-.92-.93s.42-.91.92-.91.92.41.92.91-.41.93-.92.93ZM1303.43,38.86v-4.25h1.58v4.25h-1.58Z"/>
      <path class="cls-65" d="M1307.28,35.21c.22-.41.48-.69.97-.69,1.08,0,1.38,1.37,1.38,2.22s-.26,2.21-1.35,2.21c-.49,0-.77-.28-1.01-.67.02.24.04.46.04.7v1.83h-1.58v-6.21h1.58l-.04.6ZM1307.63,35.82c-.34,0-.36.66-.36.89s.03.91.36.91c.36,0,.38-.7.38-.95s-.04-.86-.37-.86Z"/>
      <path class="cls-65" d="M1312.71,36.02c-.16-.16-.4-.37-.65-.37-.12,0-.25.06-.25.2,0,.51,1.5.33,1.5,1.61,0,.97-.82,1.49-1.71,1.49-.59,0-1-.17-1.51-.45l.57-1.17c.19.2.5.45.79.45.14,0,.31-.06.31-.23,0-.44-1.53-.32-1.53-1.58,0-.95.89-1.46,1.75-1.46.46,0,.87.15,1.27.35l-.55,1.16Z"/>
      <path class="cls-65" d="M1314.81,40.33h-1.29l.75-2.92h1.61l-1.07,2.92Z"/>
      <path class="cls-65" d="M1321.14,36.02c-.16-.16-.4-.37-.65-.37-.12,0-.25.06-.25.2,0,.51,1.5.33,1.5,1.61,0,.97-.82,1.49-1.71,1.49-.59,0-1-.17-1.51-.45l.57-1.17c.19.2.5.45.79.45.14,0,.31-.06.31-.23,0-.44-1.53-.32-1.53-1.58,0-.95.89-1.46,1.75-1.46.46,0,.87.15,1.27.35l-.55,1.16Z"/>
      <path class="cls-65" d="M1325.99,37.43c-.22.99-.9,1.52-1.89,1.52-1.3,0-1.94-.91-1.94-2.14s.69-2.29,1.99-2.29,1.91,1.07,1.91,2.25c0,.1,0,.19,0,.29h-2.31c0,.24.04.66.36.66.18,0,.32-.13.36-.3h1.54ZM1324.49,36.22c0-.23-.09-.54-.37-.54s-.35.31-.36.54h.74Z"/>
      <path class="cls-65" d="M1328.87,38.86c.02-.24.04-.48.05-.72-.23.46-.55.81-1.09.81-1.07,0-1.29-1.42-1.29-2.24s.25-2.2,1.33-2.2c.51,0,.82.34,1.02.77-.02-.23-.02-.45-.05-.67h1.61v4.25h-1.58ZM1328.52,35.82c-.41,0-.4.78-.4,1.07,0,.24.02.77.36.77.42,0,.37-.82.37-1.1,0-.23,0-.73-.33-.73Z"/>
      <path class="cls-65" d="M1331.27,37.17v-1.22h1.98v1.22h-1.98Z"/>
      <path class="cls-65" d="M1336.53,36.02c-.16-.16-.4-.37-.65-.37-.12,0-.25.06-.25.2,0,.51,1.5.33,1.5,1.61,0,.97-.82,1.49-1.71,1.49-.59,0-1-.17-1.51-.45l.57-1.17c.19.2.5.45.79.45.14,0,.31-.06.31-.23,0-.44-1.53-.32-1.53-1.58,0-.95.89-1.46,1.75-1.46.46,0,.87.15,1.27.35l-.55,1.16Z"/>
      <path class="cls-65" d="M1339.88,38.86c.02-.24.04-.48.05-.72-.23.46-.55.81-1.09.81-1.07,0-1.29-1.42-1.29-2.24s.25-2.2,1.33-2.2c.51,0,.82.34,1.02.77-.02-.23-.02-.45-.05-.67h1.61v4.25h-1.58ZM1339.53,35.82c-.41,0-.4.78-.4,1.07,0,.24.02.77.36.77.42,0,.37-.82.37-1.1,0-.23,0-.73-.33-.73Z"/>
      <path class="cls-65" d="M1342.19,38.86v-6.64h1.58v6.64h-1.58Z"/>
      <path class="cls-65" d="M1346.29,35.88v2.98h-1.58v-2.98h-.46v-1.27h.46v-1.25h1.58v1.25h.52v1.27h-.52Z"/>
      <path class="cls-65" d="M1350.95,37.43c-.22.99-.9,1.52-1.89,1.52-1.3,0-1.94-.91-1.94-2.14s.69-2.29,1.99-2.29,1.91,1.07,1.91,2.25c0,.1,0,.19,0,.29h-2.31c0,.24.04.66.36.66.18,0,.32-.13.36-.3h1.54ZM1349.45,36.22c0-.23-.09-.54-.37-.54s-.35.31-.36.54h.74Z"/>
      <path class="cls-65" d="M1353.8,38.86v-.18c0-.13.02-.26.03-.39-.24.37-.49.67-.97.67-1.12,0-1.37-1.3-1.37-2.18s.21-2.26,1.35-2.26c.51,0,.78.28,1.01.71,0-.23-.03-.46-.03-.68v-2.32h1.58v6.64h-1.61ZM1353.52,35.83c-.36,0-.39.65-.39.9s.03.87.39.87.36-.66.36-.9-.02-.87-.36-.87Z"/>
      <path class="cls-65" d="M1297.74,46.14c.22-.41.48-.69.97-.69,1.08,0,1.38,1.37,1.38,2.22s-.26,2.21-1.35,2.21c-.49,0-.77-.28-1.01-.67.02.24.04.46.04.7v1.83h-1.58v-6.21h1.58l-.04.6ZM1298.1,46.75c-.34,0-.36.66-.36.89s.03.91.36.91c.36,0,.38-.7.38-.95s-.04-.86-.37-.86Z"/>
      <path class="cls-65" d="M1303.39,47.2c-.14-.08-.27-.14-.44-.14-.19,0-.38.09-.5.25-.16.2-.16.42-.16.66v1.82h-1.58v-4.25h1.58l-.08.83c.22-.55.56-.91,1.18-.93v1.77Z"/>
      <path class="cls-65" d="M1307.56,48.36c-.22.99-.9,1.52-1.89,1.52-1.3,0-1.94-.91-1.94-2.14s.69-2.29,1.99-2.29,1.91,1.07,1.91,2.25c0,.1,0,.19,0,.29h-2.31c0,.24.04.66.36.66.18,0,.32-.13.36-.3h1.54ZM1306.06,47.15c0-.23-.09-.54-.37-.54s-.35.31-.36.54h.74Z"/>
      <path class="cls-65" d="M1310.02,46.81v2.98h-1.58v-2.98h-.46v-1.27h.46v-1.25h1.58v1.25h.52v1.27h-.52Z"/>
      <path class="cls-65" d="M1313.41,47.7c-.13.27-.26.54-.42.8h1.17v1.28h-3.41l1.03-2.2c.13-.26.25-.52.4-.77h-1.2v-1.27h3.42l-1,2.17Z"/>
      <path class="cls-65" d="M1318.64,48.36c-.22.99-.9,1.52-1.89,1.52-1.3,0-1.94-.91-1.94-2.14s.69-2.29,1.99-2.29,1.91,1.07,1.91,2.25c0,.1,0,.19,0,.29h-2.31c0,.24.04.66.36.66.18,0,.32-.13.36-.3h1.54ZM1317.14,47.15c0-.23-.09-.54-.37-.54s-.35.31-.36.54h.74Z"/>
      <path class="cls-65" d="M1319.31,49.79v-6.64h1.58v6.64h-1.58Z"/>
      <path class="cls-65" d="M1324.07,46.95c-.16-.16-.4-.37-.65-.37-.12,0-.25.06-.25.2,0,.51,1.5.33,1.5,1.61,0,.97-.82,1.49-1.71,1.49-.59,0-1-.17-1.51-.45l.57-1.17c.19.2.5.45.79.45.14,0,.31-.06.31-.23,0-.44-1.53-.32-1.53-1.58,0-.95.89-1.46,1.75-1.46.46,0,.87.15,1.27.35l-.55,1.16Z"/>
      <path class="cls-65" d="M1326.17,51.26h-1.29l.75-2.92h1.61l-1.07,2.92Z"/>
      <path class="cls-65" d="M1331.62,45.47c0,.23,0,.46-.02.68.23-.43.5-.71,1.01-.71,1.14,0,1.35,1.38,1.35,2.26s-.25,2.18-1.37,2.18c-.47,0-.74-.29-.97-.67.02.19.04.38.04.57h-1.61v-6.64h1.58v2.32ZM1331.93,46.76c-.34,0-.36.64-.36.87,0,.25,0,.9.36.9s.39-.61.39-.87-.02-.9-.4-.9Z"/>
      <path class="cls-65" d="M1338.39,48.15c0,.57-.13.99-.61,1.34-.37.26-.84.39-1.29.39s-.92-.13-1.29-.39c-.48-.35-.62-.77-.62-1.34v-2.61h1.58v2.5c0,.26.02.53.34.53.36,0,.33-.37.33-.63v-2.4h1.58v2.61Z"/>
      <path class="cls-65" d="M1340.91,46.81v2.98h-1.58v-2.98h-.46v-1.27h.46v-1.25h1.58v1.25h.52v1.27h-.52Z"/>
      <path class="cls-65" d="M1343.65,46.81v2.98h-1.58v-2.98h-.46v-1.27h.46v-1.25h1.58v1.25h.52v1.27h-.52Z"/>
      <path class="cls-65" d="M1348.31,48.36c-.22.99-.9,1.52-1.89,1.52-1.3,0-1.94-.91-1.94-2.14s.69-2.29,1.99-2.29,1.91,1.07,1.91,2.25c0,.1,0,.19,0,.29h-2.31c0,.24.04.66.36.66.18,0,.32-.13.36-.3h1.54ZM1346.81,47.15c0-.23-.09-.54-.37-.54s-.35.31-.36.54h.74Z"/>
      <path class="cls-65" d="M1351.65,47.2c-.14-.08-.27-.14-.44-.14-.19,0-.38.09-.5.25-.16.2-.16.42-.16.66v1.82h-1.58v-4.25h1.58l-.08.83c.22-.55.56-.91,1.18-.93v1.77Z"/>
      <path class="cls-65" d="M1353.88,51.75h-1.62l.75-2.13-1.27-4.08h1.58c.2.8.42,1.59.5,2.41.07-.5.13-1,.25-1.49l.24-.92h1.58l-2.01,6.21Z"/>
      <path class="cls-65" d="M1298.42,60.78c-.15.02-.28.03-.43.03-1.25,0-1.9-1.1-1.9-2.24s.78-2.2,2.01-2.2c.11,0,.21,0,.32.02v1.38c-.46.03-.7.31-.7.77,0,.34.2.79.59.79h.11v1.45Z"/>
      <path class="cls-65" d="M1301.64,58.13c-.14-.08-.27-.14-.44-.14-.19,0-.38.09-.5.25-.16.2-.16.42-.16.66v1.82h-1.58v-4.25h1.58l-.08.83c.22-.55.56-.91,1.18-.93v1.77Z"/>
      <path class="cls-65" d="M1305.91,59.08c0,.57-.13.99-.61,1.34-.37.26-.84.39-1.29.39s-.92-.13-1.29-.39c-.48-.35-.62-.77-.62-1.34v-2.61h1.58v2.5c0,.26.02.53.34.53.36,0,.33-.37.33-.63v-2.4h1.58v2.61Z"/>
      <path class="cls-65" d="M1308.8,60.72v-2.25c0-.18,0-.52-.25-.52-.31,0-.34.4-.34.63v2.14h-1.58v-4.25h1.58c0,.27-.02.54-.04.81.21-.49.55-.9,1.12-.9.82,0,1.08.75,1.08,1.45v2.9h-1.58Z"/>
      <path class="cls-65" d="M1313.32,60.78c-.15.02-.28.03-.43.03-1.25,0-1.9-1.1-1.9-2.24s.78-2.2,2.01-2.2c.11,0,.21,0,.32.02v1.38c-.46.03-.7.31-.7.77,0,.34.2.79.59.79h.11v1.45Z"/>
      <path class="cls-65" d="M1316.03,60.72v-2.25c0-.18,0-.52-.25-.52-.31,0-.34.4-.34.63v2.14h-1.58v-6.64h1.58v2.38c0,.27-.02.55-.04.82.21-.49.55-.9,1.12-.9.82,0,1.08.75,1.08,1.45v2.9h-1.58Z"/>
      <path class="cls-65" d="M1319.31,62.18h-1.29l.75-2.92h1.61l-1.07,2.92Z"/>
      <path class="cls-65" d="M1325.39,60.72c.02-.24.04-.48.05-.72-.23.46-.55.81-1.09.81-1.07,0-1.29-1.42-1.29-2.24s.25-2.2,1.33-2.2c.51,0,.82.34,1.02.77-.02-.23-.02-.45-.05-.67h1.61v4.25h-1.58ZM1325.04,57.67c-.41,0-.4.78-.4,1.07,0,.24.02.77.36.77.42,0,.37-.82.37-1.1,0-.23,0-.73-.33-.73Z"/>
      <path class="cls-65" d="M1329.86,60.72v-2.25c0-.18,0-.52-.25-.52-.31,0-.34.4-.34.63v2.14h-1.58v-4.25h1.58c0,.27-.02.54-.04.81.21-.49.55-.9,1.12-.9.82,0,1.08.75,1.08,1.45v2.9h-1.58Z"/>
      <path class="cls-65" d="M1334.36,60.72v-.18c0-.13.02-.26.03-.39-.24.37-.49.67-.97.67-1.12,0-1.37-1.3-1.37-2.18s.21-2.26,1.35-2.26c.51,0,.78.28,1.01.71,0-.23-.03-.46-.03-.68v-2.32h1.58v6.64h-1.61ZM1334.08,57.68c-.36,0-.39.65-.39.9s.03.87.39.87.36-.66.36-.9-.02-.87-.36-.87Z"/>
      <path class="cls-65" d="M1341.28,57.87c-.16-.16-.4-.37-.65-.37-.12,0-.25.06-.25.2,0,.51,1.5.33,1.5,1.61,0,.97-.82,1.49-1.71,1.49-.59,0-1-.17-1.51-.45l.57-1.17c.19.2.5.45.79.45.14,0,.31-.06.31-.23,0-.44-1.53-.32-1.53-1.58,0-.95.89-1.46,1.75-1.46.46,0,.87.15,1.27.35l-.55,1.16Z"/>
      <path class="cls-65" d="M1347.03,60.72h-1.56l-.33-2.55-.48,2.55h-1.55l-1.06-4.25h1.55c.15.86.34,1.7.4,2.57.08-.87.29-1.72.48-2.57h1.35c.15.86.3,1.7.37,2.57.13-.87.3-1.71.48-2.57h1.58l-1.24,4.25Z"/>
      <path class="cls-65" d="M1352.34,59.29c-.22.99-.9,1.52-1.89,1.52-1.3,0-1.94-.91-1.94-2.14s.69-2.29,1.99-2.29,1.91,1.07,1.91,2.25c0,.1,0,.19,0,.29h-2.31c0,.24.04.66.36.66.18,0,.32-.13.36-.3h1.54ZM1350.84,58.07c0-.23-.09-.54-.37-.54s-.35.31-.36.54h.74Z"/>
      <path class="cls-65" d="M1356.72,59.29c-.22.99-.9,1.52-1.89,1.52-1.3,0-1.94-.91-1.94-2.14s.69-2.29,1.99-2.29,1.91,1.07,1.91,2.25c0,.1,0,.19,0,.29h-2.31c0,.24.04.66.36.66.18,0,.32-.13.36-.3h1.54ZM1355.22,58.07c0-.23-.09-.54-.37-.54s-.35.31-.36.54h.74Z"/>
      <path class="cls-65" d="M1359.18,57.74v2.98h-1.58v-2.98h-.46v-1.27h.46v-1.25h1.58v1.25h.52v1.27h-.52Z"/>
      <path class="cls-65" d="M1298.42,71.71c-.15.02-.28.03-.43.03-1.25,0-1.9-1.1-1.9-2.24s.78-2.2,2.01-2.2c.11,0,.21,0,.32.02v1.38c-.46.03-.7.31-.7.77,0,.34.2.79.59.79h.11v1.45Z"/>
      <path class="cls-65" d="M1301.18,71.64c.02-.24.04-.48.05-.72-.23.46-.55.81-1.09.81-1.07,0-1.29-1.42-1.29-2.24s.25-2.2,1.33-2.2c.51,0,.82.34,1.02.77-.02-.23-.02-.45-.05-.67h1.61v4.25h-1.58ZM1300.83,68.6c-.41,0-.4.78-.4,1.07,0,.24.02.77.36.77.42,0,.37-.82.37-1.1,0-.23,0-.73-.33-.73Z"/>
      <path class="cls-65" d="M1306.17,69.06c-.14-.08-.27-.14-.44-.14-.19,0-.38.09-.5.25-.16.2-.16.42-.16.66v1.82h-1.58v-4.25h1.58l-.08.83c.22-.55.56-.91,1.18-.93v1.77Z"/>
      <path class="cls-65" d="M1308.84,71.64c.02-.24.04-.48.05-.72-.23.46-.55.81-1.09.81-1.07,0-1.29-1.42-1.29-2.24s.25-2.2,1.33-2.2c.51,0,.82.34,1.02.77-.02-.23-.02-.45-.05-.67h1.61v4.25h-1.58ZM1308.49,68.6c-.41,0-.4.78-.4,1.07,0,.24.02.77.36.77.42,0,.37-.82.37-1.1,0-.23,0-.73-.33-.73Z"/>
      <path class="cls-65" d="M1315.52,71.64v-2.36c0-.16-.02-.46-.25-.46-.33,0-.36.43-.36.67v2.15h-1.58v-2.34c0-.19,0-.44-.25-.44-.36,0-.36.4-.36.67v2.11h-1.58v-4.25h1.58v.22c0,.16,0,.33-.02.49.25-.46.52-.8,1.08-.8.6,0,.91.37,1.13.88.18-.52.46-.88,1.06-.88.27,0,.55.1.75.28.34.31.37.72.37,1.15v2.92h-1.58Z"/>
      <path class="cls-65" d="M1321.54,70.21c-.22.99-.9,1.52-1.89,1.52-1.3,0-1.94-.91-1.94-2.14s.69-2.29,1.99-2.29,1.91,1.07,1.91,2.25c0,.1,0,.19,0,.29h-2.31c0,.24.04.66.36.66.18,0,.32-.13.36-.3h1.54ZM1320.04,69c0-.23-.09-.54-.37-.54s-.35.31-.36.54h.74Z"/>
      <path class="cls-65" d="M1322.2,71.64v-6.64h1.58v6.64h-1.58Z"/>
      <path class="cls-65" d="M1329.31,69.06c-.14-.08-.27-.14-.44-.14-.19,0-.38.09-.5.25-.16.2-.16.42-.16.66v1.82h-1.58v-4.25h1.58l-.08.83c.22-.55.56-.91,1.18-.93v1.77Z"/>
      <path class="cls-65" d="M1330.55,66.99c-.51,0-.92-.43-.92-.93s.42-.91.92-.91.92.41.92.91-.41.93-.92.93ZM1329.76,71.64v-4.25h1.58v4.25h-1.58Z"/>
      <path class="cls-65" d="M1333.64,67.33c0,.23,0,.46-.02.68.23-.43.5-.71,1.01-.71,1.14,0,1.35,1.38,1.35,2.26s-.25,2.18-1.37,2.18c-.47,0-.74-.29-.97-.67.02.19.04.38.04.57h-1.61v-6.64h1.58v2.32ZM1333.95,68.61c-.34,0-.36.64-.36.87,0,.25,0,.9.36.9s.39-.61.39-.87-.02-.9-.4-.9Z"/>
      <path class="cls-65" d="M1338.17,67.33c0,.23,0,.46-.02.68.23-.43.5-.71,1.01-.71,1.14,0,1.35,1.38,1.35,2.26s-.25,2.18-1.37,2.18c-.47,0-.74-.29-.97-.67.02.19.04.38.04.57h-1.61v-6.64h1.58v2.32ZM1338.47,68.61c-.34,0-.36.64-.36.87,0,.25,0,.9.36.9s.39-.61.39-.87-.02-.9-.4-.9Z"/>
      <path class="cls-65" d="M1342.95,71.74c-1.3,0-1.95-.99-1.95-2.2s.67-2.23,1.96-2.23,2,1,2,2.26-.69,2.18-2,2.18ZM1342.96,68.49c-.38,0-.44.76-.44,1.03s.05,1.02.45,1.02.45-.75.45-1.02-.06-1.03-.46-1.03Z"/>
      <path class="cls-65" d="M1347.71,71.64v-2.25c0-.18,0-.52-.25-.52-.31,0-.34.4-.34.63v2.14h-1.58v-4.25h1.58c0,.27-.02.54-.04.81.21-.49.55-.9,1.12-.9.82,0,1.08.75,1.08,1.45v2.9h-1.58Z"/>
      <path class="cls-65" d="M1352.48,68.8c-.16-.16-.4-.37-.65-.37-.12,0-.25.06-.25.2,0,.51,1.5.33,1.5,1.61,0,.97-.82,1.49-1.71,1.49-.59,0-1-.17-1.51-.45l.57-1.17c.19.2.5.45.79.45.14,0,.31-.06.31-.23,0-.44-1.53-.32-1.53-1.58,0-.95.89-1.46,1.75-1.46.46,0,.87.15,1.27.35l-.55,1.16Z"/>
      <path class="cls-65" d="M1354.59,71.74c-.51,0-.93-.42-.93-.93s.42-.91.92-.91.93.42.93.93-.42.91-.92.91Z"/>
    </g>
  </g>
</svg>
